<svg width="500" height="600" viewbox = "0 0 500 600"  xmlns="http://www.w3.org/2000/svg">
<!--<json>{
  "glyph": "0336,0330,0330,0330,0330,0330,0330,0321,0227,0335,0335,0330,0201,0224,0201,0330,0221,0330,0336,0333,0337,0223,0336,0330,0220,0335,0335,0333,0333,0333,0333,0220,0330,0337,0222,0335,0335,0330,0330,0334,0336,0332,0337,0330,0201,0224,0201,0225,0334,0330,0332,0331,0332,0332,0332,0332,0332,0334,0201,0201,0335,0333,0333,0335,0335,0336,0332,0330,0337,0337,0201,0335,0335,0333,0331,0332,0342,0333,0333,0336,0332,0337,0336,0221,0330,0332,0336,0333,0337,0222,0201,0201,0331,0331,0333,0333,0331,0336,0332,0337,0201,0336,0333,0350,0334,0343,0335,0330,0335,0335,0337,0304,0201,0334,0226,0331,0331,0332,0332,0331,0332,0332,0335,0335,0332,0332,0330,0336,0331,0337,0330,0335,0335,0331,0224,0342,0330,0331,0331,0335,0335,0201,0335,0335,0330,0330,0330,0331,0331,0331,0332,0332,0332,0201,0201,0201,0201,0330,0330,0330,0330,0333,0333,0330,0333,0330,0333,0331,0331,0333,0333,0330,0330,",
  "x0": 250,
  "y0": 254.54545454545456,
  "unit": 54.64107642920563,
  "width": 500,
  "height": 600,
  "style": {
    "color0": "black",
    "fill0": "black",
    "line0": 1,
    "color1": "black",
    "fill1": "black",
    "line1": 5,
    "color2": "red",
    "fill2": "red",
    "line2": 6,
    "color3": "#FF7900",
    "fill3": "#FF7900",
    "line3": 1,
    "color4": "yellow",
    "fill4": "yellow",
    "line4": 1,
    "color5": "green",
    "fill5": "green",
    "line5": 1,
    "color6": "blue",
    "fill6": "blue",
    "line6": 6,
    "color7": "purple",
    "fill7": "purple",
    "line7": 1
  },
  "shapes": [
    "0220:0341,0350,0335,0342,0335,0335,0342,0335,0335,0342,0335,0335,0342,0335,0304,",
    "0221:0331,0333,0337,0200,0336,0332,0201,0350,0334,0310,0336,0330,0335,0336,0330,0335,0335,0335,0335,0362,0203,0334,0337,0203,0334,0334,0203,0334,0336,0203,0364,0304,0332,0313,0331,0331,0337,",
    "0222:0330,0331,0336,0366,0335,0335,0331,0331,0333,0367,0335,0335,0337,",
    "0223:0330,0331,0336,0366,0335,0335,0331,0331,0332,0367,0335,0335,0337,",
    "0224:0330,0334,0306,0334,0312,0336,0313,0337,0362,0203,0334,0334,0203,0334,0334,0203,0354,0334,0336,0312,0337,0304,0313,0335,",
    "0225:0336,0336,0342,0334,0333,0331,0337,0362,0203,0335,0336,0203,0335,0203,0203,0335,0203,0354,0335,0335,0330,0350,0335,0310,0337,0362,0203,0334,0334,0334,0336,0203,0203,0203,0203,0334,0334,0334,0337,0203,0364,0330,0334,0334,0334,0304,0336,0331,0313,0337,0337,0336,0330,0337,0337,0350,0343,0336,0343,0211,0211,0211,0343,0210,0210,0210,0304,0331,0337,0336,0336,0330,0337,",
    "0226:0336,0331,0337,0336,0336,0333,0330,0337,0123,0104,0122,0365,0336,0331,0332,0337,0362,0203,0203,0335,0203,0203,0203,0336,0203,0335,0337,0203,0203,0335,0203,0203,0203,0336,0203,0335,0354,0335,0337,0337,0334,0336,0330,0337,",
    "0227:0341,0336,0332,0333,0211,0211,0336,0332,0343,0335,0335,0332,0332,0343,0335,0335,0332,0337,0337,0210,0210,",
    "01220:0333,0200,0336,0330,0332,0336,0220,0337,0331,0333,0337,",
    "01221:0333,0200,0336,0330,0332,0336,0221,0337,0331,0333,0337,",
    "01222:0333,0200,0336,0332,0337,0336,0330,0222,0333,0336,0331,0331,0331,0331,0333,0337,0337,",
    "01223:0333,0200,0336,0330,0332,0223,0336,0331,0333,0331,0331,0331,0337,0337,",
    "01224:0333,0200,0336,0330,0332,0335,0336,0331,0337,0224,0334,0336,0333,0337,0331,0337,",
    "01225:0333,0200,0336,0330,0332,0336,0332,0335,0337,0225,0334,0336,0331,0331,0333,0333,0333,0337,0337,",
    "01226:0333,0200,0336,0330,0332,0336,0331,0332,0337,0336,0330,0226,0337,0331,0333,0336,0333,0337,0337,",
    "01227:0333,0200,0336,0330,0332,0336,0227,0337,0331,0333,0337,",
    "0240:0220,0336,0331,0333,0336,0321,0335,0342,0335,0335,0342,0335,0330,0330,0332,0332,0337,0337,",
    "01240:0333,0200,0336,0330,0332,0210,0240,0211,0333,0331,0337,",
    "0241:0220,0336,0321,0343,0332,0350,0335,0336,0342,0334,0334,0342,0335,0304,0337,0333,0337,",
    "01241:0333,0200,0336,0332,0330,0210,0241,0211,0333,0331,0337,",
    "0242:0220,0321,0336,0343,0333,0336,0350,0335,0342,0334,0334,0342,0335,0337,0304,0332,0337,",
    "01242:0333,0200,0336,0330,0332,0210,0242,0211,0333,0331,0337,",
    "0243:0220,0336,0331,0332,0336,0321,0343,0332,0350,0334,0336,0342,0335,0335,0342,0337,0334,0334,0335,0304,0332,0330,0330,0337,0337,0333,",
    "01243:0333,0200,0336,0330,0332,0210,0243,0211,0333,0331,0337,",
    "0244:0220,0336,0331,0333,0336,0321,0343,0333,0350,0336,0335,0342,0334,0334,0342,0335,0337,0304,0333,0330,0330,0337,0337,0332,",
    "01244:0333,0200,0336,0330,0332,0210,0244,0211,0333,0331,0337,",
    "0245:0210,0332,0332,0362,0335,0203,0203,0203,0203,0334,0203,0363,0332,0332,0331,0211,",
    "01245:0333,0200,0336,0330,0332,0336,0245,0337,0333,0331,0337,",
    "0246:0210,0332,0332,0335,0306,0336,0330,0335,0335,0335,0321,0362,0203,0335,0335,0203,0364,0331,0350,0335,0337,0366,0333,0333,0333,0333,0334,0334,0334,0334,0367,0335,0336,0342,0334,0334,0342,0330,0330,0330,0330,0335,0335,0335,0304,0337,0211,",
    "01246:0333,0200,0336,0330,0332,0336,0246,",
    "0247:0330,0332,0336,0332,0336,0221,0333,0333,0333,0222,0333,0333,0333,0223,0333,0333,0333,0225,0333,0331,0331,0331,0332,0332,0332,0332,0332,0332,0332,0332,0332,0332,0332,0332,0333,0333,0226,0331,0331,0331,0333,0333,0333,0333,0333,0333,0333,0333,0333,0333,0333,0333,0333,0330,0333,0330,0330,0333,0330,0331,0332,0332,0332,0332,0332,0332,0332,0332,0332,0332,0332,0332,0227,0333,0333,0333,0230,0333,0331,0331,0331,0331,0332,0332,0332,0330,0332,0332,0332,0332,0332,0332,0333,0333,0231,0333,0333,0333,0232,0331,0333,0330,0333,0333,0233,0333,0333,0333,0234,0330,0330,0332,0330,0332,0332,0337,0337,",
    "01247:0333,0200,0336,0330,0332,0220,0336,0247,0337,0331,0333,0337,"
  ]
}</json>--><circle cx="250" cy = "91" r = "27.320538214602816" stroke = "#000000" stroke-width = "5" fill = "none" />
  <path d="M232.11847559080735 90.6222252578377           A8.940762204596316 8.940762204596316 0 0 1 250 90.6222252578377" fill = "none" stroke = "#000000" stroke-width = "5" />
  <path d="M267.8815244091926 90.6222252578377           A8.940762204596316 8.940762204596316 0 0 1 249.99999999999997 90.6222252578377" fill = "none" stroke = "#000000" stroke-width = "5" />
    <line x1="250" y1="118" x2="250" y2="145" style="stroke:#000000;stroke-width:5" />
	<path d = "M250 173 L266 145 L234 145 L250 173 Z" stroke = "#000000" stroke-width = "5" fill = "none" />    <line x1="250" y1="173" x2="250" y2="200" style="stroke:#000000;stroke-width:5" />
	<path d = "M223 200 L223 255 L277 255 L277 200 L223 200 Z" stroke = "#000000" stroke-width = "5" fill = "none" />    <line x1="250" y1="200" x2="250" y2="227" style="stroke:#000000;stroke-width:5" />
	<path d = "M264 255 L264 241 L250 227 L236 241 L236 255 " stroke = "#000000" stroke-width = "5" fill = "none" /><path    d = "M236,255 C236,268 223,268 223,282" fill = "none" stroke-width = "5" stroke = "#000000" /><circle cx="223" cy = "296" r = "13.660269107301403" stroke = "#000000" stroke-width = "5" fill = "none" />
    <line x1="223" y1="296" x2="213" y2="305" style="stroke:#000000;stroke-width:5" />
    <line x1="223" y1="296" x2="213" y2="286" style="stroke:#000000;stroke-width:5" />
    <line x1="223" y1="296" x2="232" y2="286" style="stroke:#000000;stroke-width:5" />
    <line x1="223" y1="296" x2="232" y2="305" style="stroke:#000000;stroke-width:5" />
<circle cx="277" cy = "296" r = "13.660269107301403" stroke = "#000000" stroke-width = "5" fill = "none" />
    <line x1="277" y1="296" x2="287" y2="286" style="stroke:#000000;stroke-width:5" />
    <line x1="277" y1="296" x2="287" y2="305" style="stroke:#000000;stroke-width:5" />
    <line x1="277" y1="296" x2="268" y2="305" style="stroke:#000000;stroke-width:5" />
    <line x1="277" y1="296" x2="268" y2="286" style="stroke:#000000;stroke-width:5" />
<path    d = "M277,282 C277,268 264,268 264,255" fill = "none" stroke-width = "5" stroke = "#000000" />    <line x1="291" y1="296" x2="318" y2="296" style="stroke:#000000;stroke-width:5" />
	<path d = "M346 296 L318 280 L318 311 L346 296 Z" stroke = "#000000" stroke-width = "5" fill = "none" />    <line x1="346" y1="296" x2="373" y2="296" style="stroke:#000000;stroke-width:5" />
    <line x1="373" y1="296" x2="380" y2="296" style="stroke:#000000;stroke-width:5" />
	<path d = "M380 302 L380 289 L387 289 L387 296 L387 302 L380 302 Z" stroke = "#000000" stroke-width = "5" fill = "none" />	<path d = "M387 302 L393 309 L393 302 L393 296 L393 289 L393 282 L387 289 " stroke = "#000000" stroke-width = "5" fill = "none" />  <path d="M425.239766747438 256.88918619293764           A54.64107642920561 54.64107642920561 0 0 1 425.2397667474364 334.1633375417851" fill = "none" stroke = "#000000" stroke-width = "5" />
  <path d="M405.9212289102258 276.2077240301491           A27.320538214602806 27.320538214602806 0 0 1 405.921228910225 314.84479970457284" fill = "none" stroke = "#000000" stroke-width = "5" />
  <path d="M415.5356053377487 266.5933476026266           A40.91731975216559 40.91731975216559 0 0 1 415.5356053377475 324.45917613209576" fill = "none" stroke = "#000000" stroke-width = "5" />
    <line x1="209" y1="296" x2="182" y2="296" style="stroke:#000000;stroke-width:5" />
    <line x1="182" y1="296" x2="154" y2="296" style="stroke:#000000;stroke-width:5" />
    <line x1="223" y1="309" x2="223" y2="364" style="stroke:#000000;stroke-width:5" />
    <line x1="223" y1="418" x2="223" y2="364" style="stroke:#000000;stroke-width:5" />
	<path d = "M332 446 L332 391 L277 391 L277 446 L332 446 Z" stroke = "#000000" stroke-width = "5" fill = "none" />    <line x1="305" y1="446" x2="305" y2="418" style="stroke:#000000;stroke-width:5" />
	<path d = "M291 391 L291 405 L305 418 L318 405 L318 391 " stroke = "#000000" stroke-width = "5" fill = "none" /><path    d = "M291,391 C291,377 277,377 277,364" fill = "none" stroke-width = "5" stroke = "#000000" />    <line x1="277" y1="364" x2="277" y2="337" style="stroke:#000000;stroke-width:5" />
    <line x1="277" y1="337" x2="277" y2="309" style="stroke:#000000;stroke-width:5" />
    <line x1="318" y1="391" x2="318" y2="364" style="stroke:#000000;stroke-width:5" />
  <path d="M318.30134553650475 363.82760740386783           A13.6602691073014 13.6602691073014 0 0 1 331.9616146438065 350.16733829656675" fill = "none" stroke = "#000000" stroke-width = "5" />
    <line x1="332" y1="350" x2="359" y2="350" style="stroke:#000000;stroke-width:5" />
    <text x="366" y = "357" fill = "#000000" font-size = "13.6602691073014px" font-family = "Arial">SDR</text>
	<path d = "M359 364 L359 350 L359 337 L373 337 L387 337 L400 337 L407 337 L407 350 L407 364 L393 364 L380 364 L366 364 L359 364 Z" stroke = "#000000" stroke-width = "5" fill = "none" />	<path d = "M305 473 L289 500 L320 500 L305 473 Z" stroke = "#000000" stroke-width = "5" fill = "none" />    <line x1="305" y1="473" x2="305" y2="446" style="stroke:#000000;stroke-width:5" />
    <line x1="305" y1="500" x2="305" y2="528" style="stroke:#000000;stroke-width:5" />
    <line x1="223" y1="528" x2="223" y2="500" style="stroke:#000000;stroke-width:5" />
    <line x1="223" y1="500" x2="223" y2="473" style="stroke:#000000;stroke-width:5" />
    <line x1="223" y1="473" x2="223" y2="446" style="stroke:#000000;stroke-width:5" />
    <line x1="223" y1="446" x2="223" y2="418" style="stroke:#000000;stroke-width:5" />
</svg>