<svg width="700" height="200" viewbox = "0 0 700 200"  xmlns="http://www.w3.org/2000/svg">
<!--<json>{
  "glyph": "0336,0336,0336,0336,0211,0332,0332,0332,0331,0332,0332,0331,0332,0332,0331,0332,0332,0332,0332,0332,0332,0332,0332,0332,0332,0332,0332,0332,0337,0337,0337,0337,0321,0226,0226,0226,0226,0226,0226,0335,0232,0335,0335,0330,0330,0330,0330,0330,0330,0330,0330,0330,0232,",
  "x0": 163.67544575864807,
  "y0": 35.76258452291512,
  "unit": 54.64107642920563,
  "width": 700,
  "height": 200,
  "style": {
    "color0": "black",
    "fill0": "black",
    "line0": 1,
    "color1": "black",
    "fill1": "black",
    "line1": 5,
    "color2": "red",
    "fill2": "red",
    "line2": 6,
    "color3": "#FF7900",
    "fill3": "#FF7900",
    "line3": 1,
    "color4": "yellow",
    "fill4": "yellow",
    "line4": 1,
    "color5": "green",
    "fill5": "green",
    "line5": 1,
    "color6": "blue",
    "fill6": "blue",
    "line6": 6,
    "color7": "purple",
    "fill7": "purple",
    "line7": 1
  },
  "shapes": [
    "0220:0336,0336,0336,0336,0336,0201,0337,0362,0203,0306,0334,0337,0203,0335,0335,0203,0203,0334,0334,0203,0203,0335,0335,0203,0203,0334,0334,0203,0203,0335,0335,0203,0203,0334,0334,0203,0335,0203,0336,0336,0203,0364,0304,0337,0337,0337,0337,0337,",
    "0221:0336,0314,0336,0313,0337,0235,0235,0235,0235,0337,0314,0337,0313,0336,",
    "0222:0336,0336,0362,0203,0336,0203,0334,0364,0337,0342,0335,0335,0342,0332,0342,0335,0335,0342,0335,0336,0362,0203,0337,0203,0335,0364,0335,0337,0337,0335,0335,",
    "0223:0336,0331,0342,0337,0304,0336,0336,0335,0310,0362,0203,0335,0350,0335,0337,0203,0335,0335,0203,0335,0335,0335,0336,0203,0354,0304,0334,0313,0337,0337,0304,0336,0330,0337,",
    "0224:0336,0336,0336,0201,0330,0330,0337,0341,0330,0341,0330,0336,0201,0337,0337,0337,",
    "0225:0336,0336,0201,0330,0337,0334,0336,0336,0336,0336,0331,0337,0362,0203,0335,0337,0337,0337,0305,0352,0334,0203,0335,0304,0335,0336,0336,0336,0203,0363,0331,0334,0337,0337,0337,0305,0352,0334,0331,0335,0304,0336,0336,0336,0362,0335,0203,0334,0337,0337,0337,0305,0352,0335,0203,0334,0304,0334,0336,0336,0336,0203,0363,0335,0333,0337,0337,0337,0305,0352,0335,0331,0334,0304,0336,0336,0336,0336,0332,0337,0337,0337,0337,0336,0330,0337,0341,0331,0337,0336,0336,0331,0337,0337,",
    "0226:0335,0220,0335,0222,0335,0335,0330,0231,0331,0223,0330,0335,0336,0201,0334,0337,",
    "0227:0335,0312,0336,0306,0201,0334,0334,0313,0337,0201,0334,0334,0201,0334,0334,0336,0201,0304,0334,0312,0337,0313,0330,",
    "0230:0336,0336,0201,0334,0201,0335,0201,0335,0201,0201,0335,0201,0335,0201,0335,0330,0334,0330,0335,0201,0335,0201,0201,0335,0201,0335,0335,0330,0332,0201,0337,0337,",
    "0231:0336,0336,0336,0336,0347,0337,0337,0337,0337,",
    "0232:0336,0201,0336,0336,0330,0341,0331,0337,0337,0331,0337,",
    "0233:0342,0336,0330,0336,0336,0331,0334,0306,0362,0203,0335,0335,0203,0203,0335,0335,0203,0203,0335,0335,0203,0363,0330,0335,0335,0330,0330,0335,0331,0337,0342,0336,0330,0334,0337,0331,0336,0333,0335,0304,0334,0331,0331,0331,0337,0337,0337,0330,",
    "0234:0201,0336,0331,0350,0335,0336,0331,0337,0342,0336,0330,0334,0334,0331,0337,0342,0336,0330,0335,0337,0331,0304,0337,0330,",
    "0235:0336,0366,0330,0333,0333,0336,0331,0337,0367,0335,0335,0366,0331,0333,0333,0367,0335,0335,0337,",
    "0236:0201,0336,0336,0334,0306,0362,0336,0203,0335,0335,0203,0203,0335,0335,0203,0203,0335,0335,0203,0363,0304,0335,0337,0337,0337,0331,",
    "0237:0330,0335,0336,0336,0366,0337,0337,0333,0334,0334,0336,0336,0331,0367,0366,0335,0332,0337,0337,0331,0336,0336,0335,0367,0334,0337,0337,0330,",
    "01220:0333,0200,0336,0332,0337,0220,0336,0333,0337,0331,",
    "01221:0333,0200,0336,0332,0337,0336,0336,0336,0332,0337,0337,0337,0221,0331,0336,0333,0336,0336,0333,0337,0337,0337,",
    "01222:0333,0200,0336,0332,0337,0222,0336,0333,0337,0331,",
    "01223:0333,0200,0336,0332,0337,0330,0223,0331,0336,0333,0337,",
    "01224:0333,0200,0336,0332,0337,0224,0336,0333,0337,0331,",
    "01225:0333,0200,0336,0330,0332,0336,0331,0337,0225,0333,0336,0331,0337,0337,",
    "01226:0333,0200,0336,0330,0332,0336,0332,0337,0336,0330,0332,0337,0226,0336,0333,0330,0337,0337,0331,",
    "01227:0333,0200,0336,0332,0336,0330,0337,0227,0331,0336,0331,0337,0333,0337,",
    "01230:0333,0200,0336,0332,0337,0230,0336,0333,0337,0331,",
    "01231:0333,0200,0336,0332,0337,0342,0336,0330,0335,0342,0335,0342,0335,0342,0335,0337,0231,0336,0333,0331,0337,",
    "01232:0333,0200,0336,0330,0332,0336,0331,0337,0232,0333,0336,0331,0337,0337,",
    "01233:0333,0200,0336,0330,0332,0336,0331,0337,0233,0331,0336,0333,0333,0331,0337,0337,",
    "01234:0333,0200,0336,0330,0332,0336,0331,0333,0332,0337,0234,0333,0331,0336,0331,0337,0337,",
    "01235:0333,0200,0336,0330,0332,0336,0332,0330,0337,0235,0331,0336,0333,0331,0337,0337,",
    "01236:0333,0200,0336,0330,0332,0336,0331,0337,0236,0336,0333,0331,0333,0337,0337,",
    "01237:0333,0200,0336,0330,0332,0336,0237,",
    "0240:0220,0336,0331,0333,0336,0321,0335,0342,0335,0335,0342,0335,0330,0330,0332,0332,0337,0337,",
    "01240:0333,0200,0336,0330,0332,0210,0240,0211,0333,0331,0337,",
    "0241:0220,0336,0321,0343,0332,0350,0335,0336,0342,0334,0334,0342,0335,0304,0337,0333,0337,",
    "01241:0333,0200,0336,0332,0330,0210,0241,0211,0333,0331,0337,",
    "0242:0220,0321,0336,0343,0333,0336,0350,0335,0342,0334,0334,0342,0335,0337,0304,0332,0337,",
    "01242:0333,0200,0336,0330,0332,0210,0242,0211,0333,0331,0337,",
    "0243:0220,0336,0331,0332,0336,0321,0343,0332,0350,0334,0336,0342,0335,0335,0342,0337,0334,0334,0335,0304,0332,0330,0330,0337,0337,0333,",
    "01243:0333,0200,0336,0330,0332,0210,0243,0211,0333,0331,0337,",
    "0244:0220,0336,0331,0333,0336,0321,0343,0333,0350,0336,0335,0342,0334,0334,0342,0335,0337,0304,0333,0330,0330,0337,0337,0332,",
    "01244:0333,0200,0336,0330,0332,0210,0244,0211,0333,0331,0337,",
    "0245:0210,0332,0332,0362,0335,0203,0203,0203,0203,0334,0203,0363,0332,0332,0331,0211,",
    "01245:0333,0200,0336,0330,0332,0336,0245,0337,0333,0331,0337,",
    "0246:0210,0332,0332,0335,0306,0336,0330,0335,0335,0335,0321,0362,0203,0335,0335,0203,0364,0331,0350,0335,0337,0366,0333,0333,0333,0333,0334,0334,0334,0334,0367,0335,0336,0342,0334,0334,0342,0330,0330,0330,0330,0335,0335,0335,0304,0337,0211,",
    "01246:0333,0200,0336,0330,0332,0336,0246,",
    "0247:0330,0332,0336,0332,0336,0221,0333,0333,0333,0222,0333,0333,0333,0223,0333,0333,0333,0225,0333,0331,0331,0331,0332,0332,0332,0332,0332,0332,0332,0332,0332,0332,0332,0332,0333,0333,0226,0331,0331,0331,0333,0333,0333,0333,0333,0333,0333,0333,0333,0333,0333,0333,0333,0330,0333,0330,0330,0333,0330,0331,0332,0332,0332,0332,0332,0332,0332,0332,0332,0332,0332,0332,0227,0333,0333,0333,0230,0333,0331,0331,0331,0331,0332,0332,0332,0330,0332,0332,0332,0332,0332,0332,0333,0333,0231,0333,0333,0333,0232,0331,0333,0330,0333,0333,0233,0333,0333,0333,0234,0330,0330,0332,0330,0332,0332,0337,0337,",
    "01247:0333,0200,0336,0330,0332,0220,0336,0247,0337,0331,0333,0337,"
  ]
}</json>-->    <line x1="86" y1="47" x2="87" y2="47" style="stroke:#000000;stroke-width:5" />
	<path d = "M87 47 L91 47 L95 41 L99 47 L103 54 L107 47 L111 41 L115 47 L119 54 L123 47 L127 41 L130 47 L134 54 L138 47 L146 47 L148 47 " stroke = "#000000" stroke-width = "5" fill = "none" />	<path d = "M148 47 L148 63 L148 71 " stroke = "#000000" stroke-width = "5" fill = "none" />    <line x1="148" y1="71" x2="164" y2="71" style="stroke:#000000;stroke-width:5" />
    <line x1="148" y1="71" x2="132" y2="71" style="stroke:#000000;stroke-width:5" />
    <line x1="148" y1="87" x2="132" y2="87" style="stroke:#000000;stroke-width:5" />
    <line x1="148" y1="87" x2="164" y2="87" style="stroke:#000000;stroke-width:5" />
	<path d = "M148 87 L148 94 L148 110 " stroke = "#000000" stroke-width = "5" fill = "none" />    <circle cx="148" cy = "47" r = "3.9072563541949594" stroke = "#000000" stroke-width = "5" fill = "#000000" />
    <line x1="148" y1="141" x2="148" y2="110" style="stroke:#000000;stroke-width:5" />
	<path d = "M148 141 L164 141 L148 157 L132 141 L148 141 Z" stroke = "#000000" stroke-width = "5" fill = "none" />    <line x1="148" y1="47" x2="179" y2="47" style="stroke:#000000;stroke-width:5" />
    <line x1="179" y1="47" x2="181" y2="47" style="stroke:#000000;stroke-width:5" />
	<path d = "M181 47 L185 47 L189 41 L193 47 L197 54 L201 47 L205 41 L209 47 L213 54 L216 47 L220 41 L224 47 L228 54 L232 47 L240 47 L242 47 " stroke = "#000000" stroke-width = "5" fill = "none" />	<path d = "M242 47 L242 63 L242 71 " stroke = "#000000" stroke-width = "5" fill = "none" />    <line x1="242" y1="71" x2="257" y2="71" style="stroke:#000000;stroke-width:5" />
    <line x1="242" y1="71" x2="226" y2="71" style="stroke:#000000;stroke-width:5" />
    <line x1="242" y1="87" x2="226" y2="87" style="stroke:#000000;stroke-width:5" />
    <line x1="242" y1="87" x2="257" y2="87" style="stroke:#000000;stroke-width:5" />
	<path d = "M242 87 L242 94 L242 110 " stroke = "#000000" stroke-width = "5" fill = "none" />    <circle cx="242" cy = "47" r = "3.9072563541949594" stroke = "#000000" stroke-width = "5" fill = "#000000" />
    <line x1="242" y1="141" x2="242" y2="110" style="stroke:#000000;stroke-width:5" />
	<path d = "M242 141 L257 141 L242 157 L226 141 L242 141 Z" stroke = "#000000" stroke-width = "5" fill = "none" />    <line x1="242" y1="47" x2="273" y2="47" style="stroke:#000000;stroke-width:5" />
    <line x1="273" y1="47" x2="275" y2="47" style="stroke:#000000;stroke-width:5" />
	<path d = "M275 47 L279 47 L283 41 L287 47 L291 54 L295 47 L298 41 L302 47 L306 54 L310 47 L314 41 L318 47 L322 54 L326 47 L334 47 L336 47 " stroke = "#000000" stroke-width = "5" fill = "none" />	<path d = "M336 47 L336 63 L336 71 " stroke = "#000000" stroke-width = "5" fill = "none" />    <line x1="336" y1="71" x2="351" y2="71" style="stroke:#000000;stroke-width:5" />
    <line x1="336" y1="71" x2="320" y2="71" style="stroke:#000000;stroke-width:5" />
    <line x1="336" y1="87" x2="320" y2="87" style="stroke:#000000;stroke-width:5" />
    <line x1="336" y1="87" x2="351" y2="87" style="stroke:#000000;stroke-width:5" />
	<path d = "M336 87 L336 94 L336 110 " stroke = "#000000" stroke-width = "5" fill = "none" />    <circle cx="336" cy = "47" r = "3.9072563541949594" stroke = "#000000" stroke-width = "5" fill = "#000000" />
    <line x1="336" y1="141" x2="336" y2="110" style="stroke:#000000;stroke-width:5" />
	<path d = "M336 141 L351 141 L336 157 L320 141 L336 141 Z" stroke = "#000000" stroke-width = "5" fill = "none" />    <line x1="336" y1="47" x2="367" y2="47" style="stroke:#000000;stroke-width:5" />
    <line x1="367" y1="47" x2="369" y2="47" style="stroke:#000000;stroke-width:5" />
	<path d = "M369 47 L373 47 L377 41 L381 47 L384 54 L388 47 L392 41 L396 47 L400 54 L404 47 L408 41 L412 47 L416 54 L420 47 L427 47 L429 47 " stroke = "#000000" stroke-width = "5" fill = "none" />	<path d = "M429 47 L429 63 L429 71 " stroke = "#000000" stroke-width = "5" fill = "none" />    <line x1="429" y1="71" x2="445" y2="71" style="stroke:#000000;stroke-width:5" />
    <line x1="429" y1="71" x2="414" y2="71" style="stroke:#000000;stroke-width:5" />
    <line x1="429" y1="87" x2="414" y2="87" style="stroke:#000000;stroke-width:5" />
    <line x1="429" y1="87" x2="445" y2="87" style="stroke:#000000;stroke-width:5" />
	<path d = "M429 87 L429 94 L429 110 " stroke = "#000000" stroke-width = "5" fill = "none" />    <circle cx="429" cy = "47" r = "3.9072563541949594" stroke = "#000000" stroke-width = "5" fill = "#000000" />
    <line x1="429" y1="141" x2="429" y2="110" style="stroke:#000000;stroke-width:5" />
	<path d = "M429 141 L445 141 L429 157 L414 141 L429 141 Z" stroke = "#000000" stroke-width = "5" fill = "none" />    <line x1="429" y1="47" x2="461" y2="47" style="stroke:#000000;stroke-width:5" />
    <line x1="461" y1="47" x2="463" y2="47" style="stroke:#000000;stroke-width:5" />
	<path d = "M463 47 L466 47 L470 41 L474 47 L478 54 L482 47 L486 41 L490 47 L494 54 L498 47 L502 41 L506 47 L509 54 L513 47 L521 47 L523 47 " stroke = "#000000" stroke-width = "5" fill = "none" />	<path d = "M523 47 L523 63 L523 71 " stroke = "#000000" stroke-width = "5" fill = "none" />    <line x1="523" y1="71" x2="539" y2="71" style="stroke:#000000;stroke-width:5" />
    <line x1="523" y1="71" x2="508" y2="71" style="stroke:#000000;stroke-width:5" />
    <line x1="523" y1="87" x2="508" y2="87" style="stroke:#000000;stroke-width:5" />
    <line x1="523" y1="87" x2="539" y2="87" style="stroke:#000000;stroke-width:5" />
	<path d = "M523 87 L523 94 L523 110 " stroke = "#000000" stroke-width = "5" fill = "none" />    <circle cx="523" cy = "47" r = "3.9072563541949594" stroke = "#000000" stroke-width = "5" fill = "#000000" />
    <line x1="523" y1="141" x2="523" y2="110" style="stroke:#000000;stroke-width:5" />
	<path d = "M523 141 L539 141 L523 157 L508 141 L523 141 Z" stroke = "#000000" stroke-width = "5" fill = "none" />    <line x1="523" y1="47" x2="554" y2="47" style="stroke:#000000;stroke-width:5" />
    <line x1="554" y1="47" x2="556" y2="47" style="stroke:#000000;stroke-width:5" />
	<path d = "M556 47 L560 47 L564 41 L568 47 L572 54 L576 47 L580 41 L584 47 L588 54 L592 47 L595 41 L599 47 L603 54 L607 47 L615 47 L617 47 " stroke = "#000000" stroke-width = "5" fill = "none" />	<path d = "M617 47 L617 63 L617 71 " stroke = "#000000" stroke-width = "5" fill = "none" />    <line x1="617" y1="71" x2="633" y2="71" style="stroke:#000000;stroke-width:5" />
    <line x1="617" y1="71" x2="601" y2="71" style="stroke:#000000;stroke-width:5" />
    <line x1="617" y1="87" x2="601" y2="87" style="stroke:#000000;stroke-width:5" />
    <line x1="617" y1="87" x2="633" y2="87" style="stroke:#000000;stroke-width:5" />
	<path d = "M617 87 L617 94 L617 110 " stroke = "#000000" stroke-width = "5" fill = "none" />    <circle cx="617" cy = "47" r = "3.9072563541949594" stroke = "#000000" stroke-width = "5" fill = "#000000" />
    <line x1="617" y1="141" x2="617" y2="110" style="stroke:#000000;stroke-width:5" />
	<path d = "M617 141 L633 141 L617 157 L601 141 L617 141 Z" stroke = "#000000" stroke-width = "5" fill = "none" />    <line x1="617" y1="47" x2="648" y2="47" style="stroke:#000000;stroke-width:5" />
    <line x1="648" y1="47" x2="679" y2="47" style="stroke:#000000;stroke-width:5" />
<circle cx="687" cy = "47" r = "7.814512708389919" stroke = "#000000" stroke-width = "5" fill = "none" />
    <line x1="86" y1="47" x2="54" y2="47" style="stroke:#000000;stroke-width:5" />
<circle cx="46" cy = "47" r = "7.814512708389919" stroke = "#000000" stroke-width = "5" fill = "none" />
</svg>