<svg width="500" height="500" viewbox = "0 0 500 500"  xmlns="http://www.w3.org/2000/svg">
<!--<json>{
  "glyph": "0332,0332,0330,0321,0330,0330,0336,0227,0335,0335,0330,0201,0337,0336,0330,0221,0330,0336,0332,0337,0337,0222,0335,0335,0332,0332,0336,0333,0337,0223,0334,0331,0333,0335,0335,0334,0331,0331,0336,0331,0331,0330,0220,0332,0332,0332,0220,0334,0330,0337,0337,0337,0337,0342,0336,0336,0336,0335,0335,0335,0336,0330,0332,0337,0337,0337,0337,0342,0336,0336,0336,0332,0332,0336,0333,0337,0335,0335,0331,0331,0333,0336,0332,0336,0333,0337,0330,0332,0336,0333,0337,0337,0330,0336,0332,0337,0336,0342,0337,0333,0331,0336,0333,0331,0337,0330,0330,0332,0330,0336,0331,0335,0337,0201,0224,0225,0334,0331,0331,0331,0331,0331,0332,0342,0330,0336,0330,0221,0330,0332,0336,0333,0337,0337,0366,0335,0335,0331,0333,0331,0336,0336,0333,0337,0337,0367,0335,0335,0331,0333,0331,0333,0336,0332,0336,0333,0337,0201,0333,0350,0334,0343,0335,0330,0335,0335,0304,0337,0334,0226,",
  "x0": 250,
  "y0": 204.54545454545456,
  "unit": 54.64107642920563,
  "width": 500,
  "height": 500,
  "style": {
    "color0": "black",
    "fill0": "black",
    "line0": 1,
    "color1": "black",
    "fill1": "black",
    "line1": 5,
    "color2": "red",
    "fill2": "red",
    "line2": 6,
    "color3": "#FF7900",
    "fill3": "#FF7900",
    "line3": 1,
    "color4": "yellow",
    "fill4": "yellow",
    "line4": 1,
    "color5": "green",
    "fill5": "green",
    "line5": 1,
    "color6": "blue",
    "fill6": "blue",
    "line6": 6,
    "color7": "purple",
    "fill7": "purple",
    "line7": 1
  },
  "shapes": [
    "0220:0341,0350,0335,0342,0335,0335,0342,0335,0335,0342,0335,0335,0342,0335,0304,",
    "0221:0331,0333,0337,0200,0336,0332,0201,0350,0334,0310,0336,0330,0335,0336,0330,0335,0335,0335,0335,0362,0203,0334,0337,0203,0334,0334,0203,0334,0336,0203,0364,0304,0332,0313,0331,0331,0337,",
    "0222:0330,0331,0336,0366,0335,0335,0331,0331,0333,0367,0335,0335,0337,",
    "0223:0330,0331,0336,0366,0335,0335,0331,0331,0332,0367,0335,0335,0337,",
    "0224:0330,0334,0306,0334,0312,0336,0313,0337,0362,0203,0334,0334,0203,0334,0334,0203,0354,0334,0336,0312,0337,0304,0313,0335,",
    "0225:0336,0336,0342,0334,0333,0331,0337,0362,0203,0335,0336,0203,0335,0203,0203,0335,0203,0354,0335,0335,0330,0350,0335,0310,0337,0362,0203,0334,0334,0334,0336,0203,0203,0203,0203,0334,0334,0334,0337,0203,0364,0330,0334,0334,0334,0304,0336,0331,0313,0337,0337,0336,0330,0337,0337,0350,0343,0336,0343,0211,0211,0211,0343,0210,0210,0210,0304,0331,0337,0336,0336,0330,0337,",
    "0226:0336,0331,0337,0336,0336,0333,0330,0337,0123,0104,0122,0365,0336,0331,0332,0337,0362,0203,0203,0335,0203,0203,0203,0336,0203,0335,0337,0203,0203,0335,0203,0203,0203,0336,0203,0335,0354,0335,0337,0337,0334,0336,0330,0337,",
    "0227:0341,0336,0332,0333,0211,0211,0336,0332,0343,0335,0335,0332,0332,0343,0335,0335,0332,0337,0337,0210,0210,",
    "0230:0336,0342,0330,0334,0336,0331,0337,0306,0362,0203,0335,0335,0203,0335,0335,0203,0363,0335,0335,0336,0330,0304,0335,0337,0331,0337,",
    "01220:0333,0200,0336,0330,0332,0336,0220,0337,0331,0333,0337,",
    "01221:0333,0200,0336,0330,0332,0336,0221,0337,0331,0333,0337,",
    "01222:0333,0200,0336,0332,0337,0336,0330,0222,0333,0336,0331,0331,0331,0331,0333,0337,0337,",
    "01223:0333,0200,0336,0330,0332,0223,0336,0331,0333,0331,0331,0331,0337,0337,",
    "01224:0333,0200,0336,0330,0332,0335,0336,0331,0337,0224,0334,0336,0333,0337,0331,0337,",
    "01225:0333,0200,0336,0330,0332,0336,0332,0335,0337,0225,0334,0336,0331,0331,0333,0333,0333,0337,0337,",
    "01226:0333,0200,0336,0330,0332,0336,0331,0332,0337,0336,0330,0226,0337,0331,0333,0336,0333,0337,0337,",
    "01227:0333,0200,0336,0330,0332,0336,0227,0337,0331,0333,0337,",
    "01230:0333,0200,0336,0330,0332,0336,0331,0337,0230,0336,0331,0337,0333,0337,",
    "0240:0220,0336,0331,0333,0336,0321,0335,0342,0335,0335,0342,0335,0330,0330,0332,0332,0337,0337,",
    "01240:0333,0200,0336,0330,0332,0210,0240,0211,0333,0331,0337,",
    "0241:0220,0336,0321,0343,0332,0350,0335,0336,0342,0334,0334,0342,0335,0304,0337,0333,0337,",
    "01241:0333,0200,0336,0332,0330,0210,0241,0211,0333,0331,0337,",
    "0242:0220,0321,0336,0343,0333,0336,0350,0335,0342,0334,0334,0342,0335,0337,0304,0332,0337,",
    "01242:0333,0200,0336,0330,0332,0210,0242,0211,0333,0331,0337,",
    "0243:0220,0336,0331,0332,0336,0321,0343,0332,0350,0334,0336,0342,0335,0335,0342,0337,0334,0334,0335,0304,0332,0330,0330,0337,0337,0333,",
    "01243:0333,0200,0336,0330,0332,0210,0243,0211,0333,0331,0337,",
    "0244:0220,0336,0331,0333,0336,0321,0343,0333,0350,0336,0335,0342,0334,0334,0342,0335,0337,0304,0333,0330,0330,0337,0337,0332,",
    "01244:0333,0200,0336,0330,0332,0210,0244,0211,0333,0331,0337,",
    "0245:0210,0332,0332,0362,0335,0203,0203,0203,0203,0334,0203,0363,0332,0332,0331,0211,",
    "01245:0333,0200,0336,0330,0332,0336,0245,0337,0333,0331,0337,",
    "0246:0210,0332,0332,0335,0306,0336,0330,0335,0335,0335,0321,0362,0203,0335,0335,0203,0364,0331,0350,0335,0337,0366,0333,0333,0333,0333,0334,0334,0334,0334,0367,0335,0336,0342,0334,0334,0342,0330,0330,0330,0330,0335,0335,0335,0304,0337,0211,",
    "01246:0333,0200,0336,0330,0332,0336,0246,",
    "0247:0330,0332,0336,0332,0336,0221,0333,0333,0333,0222,0333,0333,0333,0223,0333,0333,0333,0225,0333,0331,0331,0331,0332,0332,0332,0332,0332,0332,0332,0332,0332,0332,0332,0332,0333,0333,0226,0331,0331,0331,0333,0333,0333,0333,0333,0333,0333,0333,0333,0333,0333,0333,0333,0330,0333,0330,0330,0333,0330,0331,0332,0332,0332,0332,0332,0332,0332,0332,0332,0332,0332,0332,0227,0333,0333,0333,0230,0333,0331,0331,0331,0331,0332,0332,0332,0330,0332,0332,0332,0332,0332,0332,0333,0333,0231,0333,0333,0333,0232,0331,0333,0330,0333,0333,0233,0333,0333,0333,0234,0330,0330,0332,0330,0332,0332,0337,0337,",
    "01247:0333,0200,0336,0330,0332,0220,0336,0247,0337,0331,0333,0337,"
  ]
}</json>--><circle cx="141" cy = "41" r = "27.320538214602816" stroke = "#000000" stroke-width = "5" fill = "none" />
  <path d="M122.83632273239608 40.62222525783765           A8.940762204596316 8.940762204596316 0 0 1 140.71784714158872 40.62222525783765" fill = "none" stroke = "#000000" stroke-width = "5" />
  <path d="M158.59937155078137 40.62222525783765           A8.940762204596316 8.940762204596316 0 0 1 140.71784714158872 40.62222525783765" fill = "none" stroke = "#000000" stroke-width = "5" />
    <line x1="141" y1="68" x2="141" y2="95" style="stroke:#000000;stroke-width:5" />
	<path d = "M113 95 L113 150 L168 150 L168 95 L113 95 Z" stroke = "#000000" stroke-width = "5" fill = "none" />    <line x1="141" y1="95" x2="141" y2="123" style="stroke:#000000;stroke-width:5" />
	<path d = "M154 150 L154 136 L141 123 L127 136 L127 150 " stroke = "#000000" stroke-width = "5" fill = "none" /><path    d = "M154,150 C154,177 182,177 182,205" fill = "none" stroke-width = "5" stroke = "#000000" /><path    d = "M100,205 C100,177 127,177 127,150" fill = "none" stroke-width = "5" stroke = "#000000" /><circle cx="182" cy = "232" r = "27.320538214602806" stroke = "#000000" stroke-width = "5" fill = "none" />
    <line x1="182" y1="232" x2="201" y2="213" style="stroke:#000000;stroke-width:5" />
    <line x1="182" y1="232" x2="201" y2="251" style="stroke:#000000;stroke-width:5" />
    <line x1="182" y1="232" x2="162" y2="251" style="stroke:#000000;stroke-width:5" />
    <line x1="182" y1="232" x2="162" y2="213" style="stroke:#000000;stroke-width:5" />
<circle cx="100" cy = "232" r = "27.320538214602806" stroke = "#000000" stroke-width = "5" fill = "none" />
    <line x1="100" y1="232" x2="119" y2="213" style="stroke:#000000;stroke-width:5" />
    <line x1="100" y1="232" x2="119" y2="251" style="stroke:#000000;stroke-width:5" />
    <line x1="100" y1="232" x2="80" y2="251" style="stroke:#000000;stroke-width:5" />
    <line x1="100" y1="232" x2="80" y2="213" style="stroke:#000000;stroke-width:5" />
    <line x1="72" y1="232" x2="-365" y2="232" style="stroke:#000000;stroke-width:5" />
    <line x1="100" y1="259" x2="100" y2="696" style="stroke:#000000;stroke-width:5" />
    <line x1="182" y1="287" x2="182" y2="259" style="stroke:#000000;stroke-width:5" />
    <line x1="209" y1="232" x2="264" y2="232" style="stroke:#000000;stroke-width:5" />
	<path d = "M318 232 L264 200 L264 263 L318 232 Z" stroke = "#000000" stroke-width = "5" fill = "none" />    <line x1="318" y1="232" x2="332" y2="232" style="stroke:#000000;stroke-width:5" />
	<path d = "M332 246 L332 218 L346 218 L346 232 L346 246 L332 246 Z" stroke = "#000000" stroke-width = "5" fill = "none" />	<path d = "M346 246 L359 259 L359 246 L359 232 L359 218 L359 205 L346 218 " stroke = "#000000" stroke-width = "5" fill = "none" />  <path d="M422.89603509996135 154.5918414112187           A109.28215285841122 109.28215285841122 0 0 1 422.89603509995334 309.14014410891366" fill = "none" stroke = "#000000" stroke-width = "5" />
  <path d="M384.2589594255357 193.2289170856404           A54.64107642920561 54.64107642920561 0 0 1 384.25895942553166 270.5030684344879" fill = "none" stroke = "#000000" stroke-width = "5" />
  <path d="M403.48771228058206 174.000164230596           A81.83463950433118 81.83463950433118 0 0 1 403.48771228057603 289.7318212895343" fill = "none" stroke = "#000000" stroke-width = "5" />
    <line x1="264" y1="505" x2="264" y2="450" style="stroke:#000000;stroke-width:5" />
	<path d = "M291 450 L291 396 L236 396 L236 450 L291 450 Z" stroke = "#000000" stroke-width = "5" fill = "none" />    <line x1="264" y1="450" x2="264" y2="423" style="stroke:#000000;stroke-width:5" />
	<path d = "M250 396 L250 409 L264 423 L277 409 L277 396 " stroke = "#000000" stroke-width = "5" fill = "none" /><path    d = "M250,396 C250,341 182,341 182,287" fill = "none" stroke-width = "5" stroke = "#000000" />    <line x1="277" y1="396" x2="277" y2="368" style="stroke:#000000;stroke-width:5" />
  <path d="M277.320538214595 368.4686838330735           A27.3205382146028 27.3205382146028 0 0 1 304.64107642919925 341.14814561847214" fill = "none" stroke = "#000000" stroke-width = "5" />
    <text x="318" y = "355" fill = "#000000" font-size = "27.3205382146028px" font-family = "Arial">SDR</text>
	<path d = "M305 368 L305 341 L305 314 L332 314 L359 314 L387 314 L400 314 L400 341 L400 368 L373 368 L346 368 L318 368 L305 368 Z" stroke = "#000000" stroke-width = "5" fill = "none" /></svg>