<svg width="400" height="500" viewbox = "0 0 400 500"  xmlns="http://www.w3.org/2000/svg">
<!--<json>{
  "glyph": "0336,0330,0330,0330,0330,0330,0330,0321,0227,0335,0335,0330,0201,0224,0201,0330,0221,0330,0336,0333,0337,0223,0336,0330,0220,0335,0335,0333,0333,0333,0333,0220,0330,0337,0222,0335,0335,0330,0330,0334,0336,0332,0337,0330,0201,0224,0201,0225,0334,0330,0332,0331,0332,0332,0332,0332,0332,0334,0201,0201,0335,0333,0333,0335,0335,0336,0332,0330,0337,0337,0201,0335,0335,0333,0331,0332,0342,0333,0333,0336,0332,0337,0336,0221,0330,0332,0336,0333,0337,0222,0201,0201,0331,0331,0333,0333,0331,0336,0332,0337,0201,0336,0333,0350,0334,0343,0335,0330,0335,0335,0337,0304,0201,0334,0226,0331,0331,0332,0332,0331,0332,0332,0335,0335,0332,0332,0330,0336,0331,0337,0330,0335,0335,0331,0224,0342,0330,0331,0331,0335,0335,0201,0335,0335,0330,0330,0330,0331,0331,0331,0332,0332,0332,0201,0201,0201,0201,0330,0330,0330,0330,0333,0333,0330,0333,0330,0333,0331,0331,0333,0333,0330,0330,0332,0332,0332,0332,0332,0332,0332,0332,0331,0331,0336,0330,0332,0334,0337,0337,0337,0342,0334,0334,0330,0335,0336,0333,0331,0330,0330,0330,0330,0336,0336,0332,0337,0330,0330,0337,0337,0342,0335,0335,0330,0330,0332,0332,0335,0336,0336,0330,0332,0330,0230,0334,0331,0331,0336,0331,0337,0101,0165,0144,0151,0157,040,0111,0156,0365,0331,0331,0331,0331,0331,0330,0330,0330,0330,0330,0330,0333,0333,0330,0333,0336,0330,0337,0335,0230,0333,0331,0335,0330,0331,0330,0330,0330,0333,0333,0330,0330,0332,0332,0332,0332,0332,0230,0330,0330,0330,0230,0331,0331,0331,0331,0331,0331,0230,0330,0330,0335,0335,0333,0333,0333,0333,0331,0331,0331,0331,0335,0337,0337,0335,0201,0335,0335,0336,0333,0336,0330,0330,0330,0332,0230,0330,0330,0230,0333,0331,0331,0122,0106,040,0111,0156,0365,0333,0330,0330,0331,0331,0332,0332,0332,0332,0332,0332,0332,0332,0332,0332,0332,0122,0332,0106,040,0117,0165,0164,0365,",
  "x0": 200,
  "y0": 204.54545454545456,
  "unit": 54.64107642920563,
  "width": 400,
  "height": 500,
  "style": {
    "color0": "black",
    "fill0": "black",
    "line0": 1,
    "color1": "black",
    "fill1": "black",
    "line1": 5,
    "color2": "red",
    "fill2": "red",
    "line2": 6,
    "color3": "#FF7900",
    "fill3": "#FF7900",
    "line3": 1,
    "color4": "yellow",
    "fill4": "yellow",
    "line4": 1,
    "color5": "green",
    "fill5": "green",
    "line5": 1,
    "color6": "blue",
    "fill6": "blue",
    "line6": 6,
    "color7": "purple",
    "fill7": "purple",
    "line7": 1
  },
  "shapes": [
    "0220:0341,0350,0335,0342,0335,0335,0342,0335,0335,0342,0335,0335,0342,0335,0304,",
    "0221:0331,0333,0337,0200,0336,0332,0201,0350,0334,0310,0336,0330,0335,0336,0330,0335,0335,0335,0335,0362,0203,0334,0337,0203,0334,0334,0203,0334,0336,0203,0364,0304,0332,0313,0331,0331,0337,",
    "0222:0330,0331,0336,0366,0335,0335,0331,0331,0333,0367,0335,0335,0337,",
    "0223:0330,0331,0336,0366,0335,0335,0331,0331,0332,0367,0335,0335,0337,",
    "0224:0330,0334,0306,0334,0312,0336,0313,0337,0362,0203,0334,0334,0203,0334,0334,0203,0354,0334,0336,0312,0337,0304,0313,0335,",
    "0225:0336,0336,0342,0334,0333,0331,0337,0362,0203,0335,0336,0203,0335,0203,0203,0335,0203,0354,0335,0335,0330,0350,0335,0310,0337,0362,0203,0334,0334,0334,0336,0203,0203,0203,0203,0334,0334,0334,0337,0203,0364,0330,0334,0334,0334,0304,0336,0331,0313,0337,0337,0336,0330,0337,0337,0350,0343,0336,0343,0211,0211,0211,0343,0210,0210,0210,0304,0331,0337,0336,0336,0330,0337,",
    "0226:0336,0331,0337,0336,0336,0333,0330,0337,0123,0104,0122,0365,0336,0331,0332,0337,0362,0203,0203,0335,0203,0203,0203,0336,0203,0335,0337,0203,0203,0335,0203,0203,0203,0336,0203,0335,0354,0335,0337,0337,0334,0336,0330,0337,",
    "0227:0341,0336,0332,0333,0211,0211,0336,0332,0343,0335,0335,0332,0332,0343,0335,0335,0332,0337,0337,0210,0210,",
    "0230:0336,0342,0330,0334,0336,0331,0337,0306,0362,0203,0335,0335,0203,0335,0335,0203,0363,0335,0335,0336,0330,0304,0335,0337,0331,0337,",
    "01220:0333,0200,0336,0330,0332,0336,0220,0337,0331,0333,0337,",
    "01221:0333,0200,0336,0330,0332,0336,0221,0337,0331,0333,0337,",
    "01222:0333,0200,0336,0332,0337,0336,0330,0222,0333,0336,0331,0331,0331,0331,0333,0337,0337,",
    "01223:0333,0200,0336,0330,0332,0223,0336,0331,0333,0331,0331,0331,0337,0337,",
    "01224:0333,0200,0336,0330,0332,0335,0336,0331,0337,0224,0334,0336,0333,0337,0331,0337,",
    "01225:0333,0200,0336,0330,0332,0336,0332,0335,0337,0225,0334,0336,0331,0331,0333,0333,0333,0337,0337,",
    "01226:0333,0200,0336,0330,0332,0336,0331,0332,0337,0336,0330,0226,0337,0331,0333,0336,0333,0337,0337,",
    "01227:0333,0200,0336,0330,0332,0336,0227,0337,0331,0333,0337,",
    "01230:0333,0200,0336,0330,0332,0336,0331,0337,0230,0336,0331,0337,0333,0337,",
    "0240:0220,0336,0331,0333,0336,0321,0335,0342,0335,0335,0342,0335,0330,0330,0332,0332,0337,0337,",
    "01240:0333,0200,0336,0330,0332,0210,0240,0211,0333,0331,0337,",
    "0241:0220,0336,0321,0343,0332,0350,0335,0336,0342,0334,0334,0342,0335,0304,0337,0333,0337,",
    "01241:0333,0200,0336,0332,0330,0210,0241,0211,0333,0331,0337,",
    "0242:0220,0321,0336,0343,0333,0336,0350,0335,0342,0334,0334,0342,0335,0337,0304,0332,0337,",
    "01242:0333,0200,0336,0330,0332,0210,0242,0211,0333,0331,0337,",
    "0243:0220,0336,0331,0332,0336,0321,0343,0332,0350,0334,0336,0342,0335,0335,0342,0337,0334,0334,0335,0304,0332,0330,0330,0337,0337,0333,",
    "01243:0333,0200,0336,0330,0332,0210,0243,0211,0333,0331,0337,",
    "0244:0220,0336,0331,0333,0336,0321,0343,0333,0350,0336,0335,0342,0334,0334,0342,0335,0337,0304,0333,0330,0330,0337,0337,0332,",
    "01244:0333,0200,0336,0330,0332,0210,0244,0211,0333,0331,0337,",
    "0245:0210,0332,0332,0362,0335,0203,0203,0203,0203,0334,0203,0363,0332,0332,0331,0211,",
    "01245:0333,0200,0336,0330,0332,0336,0245,0337,0333,0331,0337,",
    "0246:0210,0332,0332,0335,0306,0336,0330,0335,0335,0335,0321,0362,0203,0335,0335,0203,0364,0331,0350,0335,0337,0366,0333,0333,0333,0333,0334,0334,0334,0334,0367,0335,0336,0342,0334,0334,0342,0330,0330,0330,0330,0335,0335,0335,0304,0337,0211,",
    "01246:0333,0200,0336,0330,0332,0336,0246,",
    "0247:0330,0332,0336,0332,0336,0221,0333,0333,0333,0222,0333,0333,0333,0223,0333,0333,0333,0225,0333,0331,0331,0331,0332,0332,0332,0332,0332,0332,0332,0332,0332,0332,0332,0332,0333,0333,0226,0331,0331,0331,0333,0333,0333,0333,0333,0333,0333,0333,0333,0333,0333,0333,0333,0330,0333,0330,0330,0333,0330,0331,0332,0332,0332,0332,0332,0332,0332,0332,0332,0332,0332,0332,0227,0333,0333,0333,0230,0333,0331,0331,0331,0331,0332,0332,0332,0330,0332,0332,0332,0332,0332,0332,0333,0333,0231,0333,0333,0333,0232,0331,0333,0330,0333,0333,0233,0333,0333,0333,0234,0330,0330,0332,0330,0332,0332,0337,0337,",
    "01247:0333,0200,0336,0330,0332,0220,0336,0247,0337,0331,0333,0337,"
  ]
}</json>--><circle cx="200" cy = "41" r = "27.320538214602816" stroke = "#000000" stroke-width = "5" fill = "none" />
  <path d="M182.11847559080735 40.62222525783767           A8.940762204596316 8.940762204596316 0 0 1 200 40.62222525783767" fill = "none" stroke = "#000000" stroke-width = "5" />
  <path d="M217.88152440919265 40.62222525783767           A8.940762204596316 8.940762204596316 0 0 1 200 40.62222525783767" fill = "none" stroke = "#000000" stroke-width = "5" />
    <line x1="200" y1="68" x2="200" y2="95" style="stroke:#000000;stroke-width:5" />
	<path d = "M200 123 L216 95 L184 95 L200 123 Z" stroke = "#000000" stroke-width = "5" fill = "none" />    <line x1="200" y1="123" x2="200" y2="150" style="stroke:#000000;stroke-width:5" />
	<path d = "M173 150 L173 205 L227 205 L227 150 L173 150 Z" stroke = "#000000" stroke-width = "5" fill = "none" />    <line x1="200" y1="150" x2="200" y2="177" style="stroke:#000000;stroke-width:5" />
	<path d = "M214 205 L214 191 L200 177 L186 191 L186 205 " stroke = "#000000" stroke-width = "5" fill = "none" /><path    d = "M186,205 C186,218 173,218 173,232" fill = "none" stroke-width = "5" stroke = "#000000" /><circle cx="173" cy = "246" r = "13.660269107301403" stroke = "#000000" stroke-width = "5" fill = "none" />
    <line x1="173" y1="246" x2="163" y2="255" style="stroke:#000000;stroke-width:5" />
    <line x1="173" y1="246" x2="163" y2="236" style="stroke:#000000;stroke-width:5" />
    <line x1="173" y1="246" x2="182" y2="236" style="stroke:#000000;stroke-width:5" />
    <line x1="173" y1="246" x2="182" y2="255" style="stroke:#000000;stroke-width:5" />
<circle cx="227" cy = "246" r = "13.660269107301403" stroke = "#000000" stroke-width = "5" fill = "none" />
    <line x1="227" y1="246" x2="237" y2="236" style="stroke:#000000;stroke-width:5" />
    <line x1="227" y1="246" x2="237" y2="255" style="stroke:#000000;stroke-width:5" />
    <line x1="227" y1="246" x2="218" y2="255" style="stroke:#000000;stroke-width:5" />
    <line x1="227" y1="246" x2="218" y2="236" style="stroke:#000000;stroke-width:5" />
<path    d = "M227,232 C227,218 214,218 214,205" fill = "none" stroke-width = "5" stroke = "#000000" />    <line x1="241" y1="246" x2="268" y2="246" style="stroke:#000000;stroke-width:5" />
	<path d = "M296 246 L268 230 L268 261 L296 246 Z" stroke = "#000000" stroke-width = "5" fill = "none" />    <line x1="296" y1="246" x2="323" y2="246" style="stroke:#000000;stroke-width:5" />
    <line x1="323" y1="246" x2="330" y2="246" style="stroke:#000000;stroke-width:5" />
	<path d = "M330 252 L330 239 L337 239 L337 246 L337 252 L330 252 Z" stroke = "#000000" stroke-width = "5" fill = "none" />	<path d = "M337 252 L343 259 L343 252 L343 246 L343 239 L343 232 L337 239 " stroke = "#000000" stroke-width = "5" fill = "none" />  <path d="M375.239766747438 206.8891861929378           A54.64107642920561 54.64107642920561 0 0 1 375.2397667474364 284.1633375417853" fill = "none" stroke = "#000000" stroke-width = "5" />
  <path d="M355.9212289102258 226.2077240301493           A27.320538214602806 27.320538214602806 0 0 1 355.921228910225 264.84479970457306" fill = "none" stroke = "#000000" stroke-width = "5" />
  <path d="M365.5356053377487 216.5933476026268           A40.91731975216559 40.91731975216559 0 0 1 365.5356053377475 274.45917613209593" fill = "none" stroke = "#000000" stroke-width = "5" />
    <line x1="159" y1="246" x2="132" y2="246" style="stroke:#000000;stroke-width:5" />
    <line x1="132" y1="246" x2="104" y2="246" style="stroke:#000000;stroke-width:5" />
    <line x1="173" y1="259" x2="173" y2="314" style="stroke:#000000;stroke-width:5" />
    <line x1="173" y1="368" x2="173" y2="314" style="stroke:#000000;stroke-width:5" />
	<path d = "M282 396 L282 341 L227 341 L227 396 L282 396 Z" stroke = "#000000" stroke-width = "5" fill = "none" />    <line x1="255" y1="396" x2="255" y2="368" style="stroke:#000000;stroke-width:5" />
	<path d = "M241 341 L241 355 L255 368 L268 355 L268 341 " stroke = "#000000" stroke-width = "5" fill = "none" /><path    d = "M241,341 C241,327 227,327 227,314" fill = "none" stroke-width = "5" stroke = "#000000" />    <line x1="227" y1="314" x2="227" y2="287" style="stroke:#000000;stroke-width:5" />
    <line x1="227" y1="287" x2="227" y2="259" style="stroke:#000000;stroke-width:5" />
    <line x1="268" y1="341" x2="268" y2="314" style="stroke:#000000;stroke-width:5" />
  <path d="M268.3013455365047 313.827607403868           A13.6602691073014 13.6602691073014 0 0 1 281.96161464380646 300.1673382965669" fill = "none" stroke = "#000000" stroke-width = "5" />
    <line x1="282" y1="300" x2="309" y2="300" style="stroke:#000000;stroke-width:5" />
    <text x="316" y = "307" fill = "#000000" font-size = "13.6602691073014px" font-family = "Arial">SDR</text>
	<path d = "M309 314 L309 300 L309 287 L323 287 L337 287 L350 287 L357 287 L357 300 L357 314 L343 314 L330 314 L316 314 L309 314 Z" stroke = "#000000" stroke-width = "5" fill = "none" />	<path d = "M255 423 L239 450 L270 450 L255 423 Z" stroke = "#000000" stroke-width = "5" fill = "none" />    <line x1="255" y1="423" x2="255" y2="396" style="stroke:#000000;stroke-width:5" />
    <line x1="255" y1="450" x2="255" y2="478" style="stroke:#000000;stroke-width:5" />
    <line x1="173" y1="478" x2="173" y2="450" style="stroke:#000000;stroke-width:5" />
    <line x1="173" y1="450" x2="173" y2="423" style="stroke:#000000;stroke-width:5" />
    <line x1="173" y1="423" x2="173" y2="396" style="stroke:#000000;stroke-width:5" />
    <line x1="173" y1="396" x2="173" y2="368" style="stroke:#000000;stroke-width:5" />
    <line x1="104" y1="246" x2="-5" y2="246" style="stroke:#000000;stroke-width:5" />
    <line x1="173" y1="464" x2="173" y2="573" style="stroke:#000000;stroke-width:5" />
    <line x1="9" y1="218" x2="22" y2="218" style="stroke:#000000;stroke-width:5" />
	<path d = "M22 225 L22 211 L34 218 L22 225 Z" stroke = "#000000" stroke-width = "5" fill = "#000000" />    <text x="9" y = "287" fill = "#000000" font-size = "27.3205382146028px" font-family = "Arial">Audio In</text>
    <line x1="91" y1="218" x2="104" y2="218" style="stroke:#000000;stroke-width:5" />
	<path d = "M104 225 L104 211 L116 218 L104 225 Z" stroke = "#000000" stroke-width = "5" fill = "#000000" />    <line x1="145" y1="382" x2="145" y2="396" style="stroke:#000000;stroke-width:5" />
	<path d = "M139 396 L152 396 L145 408 L139 396 Z" stroke = "#000000" stroke-width = "5" fill = "#000000" />    <line x1="145" y1="464" x2="145" y2="478" style="stroke:#000000;stroke-width:5" />
	<path d = "M139 478 L152 478 L145 490 L139 478 Z" stroke = "#000000" stroke-width = "5" fill = "#000000" />    <line x1="145" y1="300" x2="145" y2="314" style="stroke:#000000;stroke-width:5" />
	<path d = "M139 314 L152 314 L145 326 L139 314 Z" stroke = "#000000" stroke-width = "5" fill = "#000000" />    <line x1="255" y1="464" x2="255" y2="573" style="stroke:#000000;stroke-width:5" />
    <line x1="282" y1="491" x2="282" y2="478" style="stroke:#000000;stroke-width:5" />
	<path d = "M289 478 L275 478 L282 466 L289 478 Z" stroke = "#000000" stroke-width = "5" fill = "#000000" />    <line x1="282" y1="437" x2="282" y2="423" style="stroke:#000000;stroke-width:5" />
	<path d = "M289 423 L275 423 L282 411 L289 423 Z" stroke = "#000000" stroke-width = "5" fill = "#000000" />    <text x="309" y = "491" fill = "#000000" font-size = "27.3205382146028px" font-family = "Arial">RF In</text>
    <text x="9" y = "491" fill = "#000000" font-size = "27.3205382146028px" font-family = "Arial">RF Out</text>
</svg>