<svg width="400" height="500" viewbox = "0 0 400 500"  xmlns="http://www.w3.org/2000/svg">
<!--<json>{
  "glyph": "0336,0330,0330,0330,0330,0330,0330,0321,0227,0335,0335,0330,0201,0224,0201,0330,0221,0330,0336,0333,0337,0223,0336,0330,0220,0335,0335,0333,0333,0333,0333,0220,0330,0337,0222,0335,0335,0330,0330,0334,0336,0332,0337,0330,0201,0224,0201,0225,0334,0330,0332,0331,0332,0332,0332,0332,0332,0334,0201,0201,0335,0333,0333,0335,0335,0336,0332,0330,0337,0337,0201,0335,0335,0333,0331,0332,0342,0333,0333,0336,0332,0337,0336,0221,0330,0332,0336,0333,0337,0222,0201,0201,0331,0331,0333,0333,0331,0336,0332,0337,0201,0336,0333,0350,0334,0343,0335,0330,0335,0335,0337,0304,0201,0334,0226,0331,0331,0332,0332,0331,0332,0332,0335,0335,0332,0332,0330,0336,0331,0337,0330,0335,0335,0331,0224,0342,0330,0331,0331,0335,0335,0201,0335,0335,0330,0330,0330,0331,0331,0331,0332,0332,0332,0201,0201,0201,0201,0330,0330,0330,0330,0333,0333,0330,0333,0330,0333,0331,0331,0333,0333,0330,0330,",
  "x0": 150,
  "y0": 204.54545454545456,
  "unit": 54.64107642920563,
  "width": 400,
  "height": 500,
  "style": {
    "color0": "black",
    "fill0": "black",
    "line0": 1,
    "color1": "black",
    "fill1": "black",
    "line1": 5,
    "color2": "red",
    "fill2": "red",
    "line2": 6,
    "color3": "#FF7900",
    "fill3": "#FF7900",
    "line3": 1,
    "color4": "yellow",
    "fill4": "yellow",
    "line4": 1,
    "color5": "green",
    "fill5": "green",
    "line5": 1,
    "color6": "blue",
    "fill6": "blue",
    "line6": 6,
    "color7": "purple",
    "fill7": "purple",
    "line7": 1
  },
  "shapes": [
    "0220:0341,0350,0335,0342,0335,0335,0342,0335,0335,0342,0335,0335,0342,0335,0304,",
    "0221:0331,0333,0337,0200,0336,0332,0201,0350,0334,0310,0336,0330,0335,0336,0330,0335,0335,0335,0335,0362,0203,0334,0337,0203,0334,0334,0203,0334,0336,0203,0364,0304,0332,0313,0331,0331,0337,",
    "0222:0330,0331,0336,0366,0335,0335,0331,0331,0333,0367,0335,0335,0337,",
    "0223:0330,0331,0336,0366,0335,0335,0331,0331,0332,0367,0335,0335,0337,",
    "0224:0330,0334,0306,0334,0312,0336,0313,0337,0362,0203,0334,0334,0203,0334,0334,0203,0354,0334,0336,0312,0337,0304,0313,0335,",
    "0225:0336,0336,0342,0334,0333,0331,0337,0362,0203,0335,0336,0203,0335,0203,0203,0335,0203,0354,0335,0335,0330,0350,0335,0310,0337,0362,0203,0334,0334,0334,0336,0203,0203,0203,0203,0334,0334,0334,0337,0203,0364,0330,0334,0334,0334,0304,0336,0331,0313,0337,0337,0336,0330,0337,0337,0350,0343,0336,0343,0211,0211,0211,0343,0210,0210,0210,0304,0331,0337,0336,0336,0330,0337,",
    "0226:0336,0331,0337,0336,0336,0333,0330,0337,0123,0104,0122,0365,0336,0331,0332,0337,0362,0203,0203,0335,0203,0203,0203,0336,0203,0335,0337,0203,0203,0335,0203,0203,0203,0336,0203,0335,0354,0335,0337,0337,0334,0336,0330,0337,",
    "0227:0341,0336,0332,0333,0211,0211,0336,0332,0343,0335,0335,0332,0332,0343,0335,0335,0332,0337,0337,0210,0210,",
    "01220:0333,0200,0336,0330,0332,0336,0220,0337,0331,0333,0337,",
    "01221:0333,0200,0336,0330,0332,0336,0221,0337,0331,0333,0337,",
    "01222:0333,0200,0336,0332,0337,0336,0330,0222,0333,0336,0331,0331,0331,0331,0333,0337,0337,",
    "01223:0333,0200,0336,0330,0332,0223,0336,0331,0333,0331,0331,0331,0337,0337,",
    "01224:0333,0200,0336,0330,0332,0335,0336,0331,0337,0224,0334,0336,0333,0337,0331,0337,",
    "01225:0333,0200,0336,0330,0332,0336,0332,0335,0337,0225,0334,0336,0331,0331,0333,0333,0333,0337,0337,",
    "01226:0333,0200,0336,0330,0332,0336,0331,0332,0337,0336,0330,0226,0337,0331,0333,0336,0333,0337,0337,",
    "01227:0333,0200,0336,0330,0332,0336,0227,0337,0331,0333,0337,",
    "0240:0220,0336,0331,0333,0336,0321,0335,0342,0335,0335,0342,0335,0330,0330,0332,0332,0337,0337,",
    "01240:0333,0200,0336,0330,0332,0210,0240,0211,0333,0331,0337,",
    "0241:0220,0336,0321,0343,0332,0350,0335,0336,0342,0334,0334,0342,0335,0304,0337,0333,0337,",
    "01241:0333,0200,0336,0332,0330,0210,0241,0211,0333,0331,0337,",
    "0242:0220,0321,0336,0343,0333,0336,0350,0335,0342,0334,0334,0342,0335,0337,0304,0332,0337,",
    "01242:0333,0200,0336,0330,0332,0210,0242,0211,0333,0331,0337,",
    "0243:0220,0336,0331,0332,0336,0321,0343,0332,0350,0334,0336,0342,0335,0335,0342,0337,0334,0334,0335,0304,0332,0330,0330,0337,0337,0333,",
    "01243:0333,0200,0336,0330,0332,0210,0243,0211,0333,0331,0337,",
    "0244:0220,0336,0331,0333,0336,0321,0343,0333,0350,0336,0335,0342,0334,0334,0342,0335,0337,0304,0333,0330,0330,0337,0337,0332,",
    "01244:0333,0200,0336,0330,0332,0210,0244,0211,0333,0331,0337,",
    "0245:0210,0332,0332,0362,0335,0203,0203,0203,0203,0334,0203,0363,0332,0332,0331,0211,",
    "01245:0333,0200,0336,0330,0332,0336,0245,0337,0333,0331,0337,",
    "0246:0210,0332,0332,0335,0306,0336,0330,0335,0335,0335,0321,0362,0203,0335,0335,0203,0364,0331,0350,0335,0337,0366,0333,0333,0333,0333,0334,0334,0334,0334,0367,0335,0336,0342,0334,0334,0342,0330,0330,0330,0330,0335,0335,0335,0304,0337,0211,",
    "01246:0333,0200,0336,0330,0332,0336,0246,",
    "0247:0330,0332,0336,0332,0336,0221,0333,0333,0333,0222,0333,0333,0333,0223,0333,0333,0333,0225,0333,0331,0331,0331,0332,0332,0332,0332,0332,0332,0332,0332,0332,0332,0332,0332,0333,0333,0226,0331,0331,0331,0333,0333,0333,0333,0333,0333,0333,0333,0333,0333,0333,0333,0333,0330,0333,0330,0330,0333,0330,0331,0332,0332,0332,0332,0332,0332,0332,0332,0332,0332,0332,0332,0227,0333,0333,0333,0230,0333,0331,0331,0331,0331,0332,0332,0332,0330,0332,0332,0332,0332,0332,0332,0333,0333,0231,0333,0333,0333,0232,0331,0333,0330,0333,0333,0233,0333,0333,0333,0234,0330,0330,0332,0330,0332,0332,0337,0337,",
    "01247:0333,0200,0336,0330,0332,0220,0336,0247,0337,0331,0333,0337,"
  ]
}</json>--><circle cx="150" cy = "41" r = "27.320538214602816" stroke = "#000000" stroke-width = "5" fill = "none" />
  <path d="M132.11847559080735 40.62222525783767           A8.940762204596316 8.940762204596316 0 0 1 150 40.62222525783767" fill = "none" stroke = "#000000" stroke-width = "5" />
  <path d="M167.88152440919265 40.62222525783767           A8.940762204596316 8.940762204596316 0 0 1 150 40.62222525783767" fill = "none" stroke = "#000000" stroke-width = "5" />
    <line x1="150" y1="68" x2="150" y2="95" style="stroke:#000000;stroke-width:5" />
	<path d = "M150 123 L166 95 L134 95 L150 123 Z" stroke = "#000000" stroke-width = "5" fill = "none" />    <line x1="150" y1="123" x2="150" y2="150" style="stroke:#000000;stroke-width:5" />
	<path d = "M123 150 L123 205 L177 205 L177 150 L123 150 Z" stroke = "#000000" stroke-width = "5" fill = "none" />    <line x1="150" y1="150" x2="150" y2="177" style="stroke:#000000;stroke-width:5" />
	<path d = "M164 205 L164 191 L150 177 L136 191 L136 205 " stroke = "#000000" stroke-width = "5" fill = "none" /><path    d = "M136,205 C136,218 123,218 123,232" fill = "none" stroke-width = "5" stroke = "#000000" /><circle cx="123" cy = "246" r = "13.660269107301403" stroke = "#000000" stroke-width = "5" fill = "none" />
    <line x1="123" y1="246" x2="113" y2="255" style="stroke:#000000;stroke-width:5" />
    <line x1="123" y1="246" x2="113" y2="236" style="stroke:#000000;stroke-width:5" />
    <line x1="123" y1="246" x2="132" y2="236" style="stroke:#000000;stroke-width:5" />
    <line x1="123" y1="246" x2="132" y2="255" style="stroke:#000000;stroke-width:5" />
<circle cx="177" cy = "246" r = "13.660269107301403" stroke = "#000000" stroke-width = "5" fill = "none" />
    <line x1="177" y1="246" x2="187" y2="236" style="stroke:#000000;stroke-width:5" />
    <line x1="177" y1="246" x2="187" y2="255" style="stroke:#000000;stroke-width:5" />
    <line x1="177" y1="246" x2="168" y2="255" style="stroke:#000000;stroke-width:5" />
    <line x1="177" y1="246" x2="168" y2="236" style="stroke:#000000;stroke-width:5" />
<path    d = "M177,232 C177,218 164,218 164,205" fill = "none" stroke-width = "5" stroke = "#000000" />    <line x1="191" y1="246" x2="218" y2="246" style="stroke:#000000;stroke-width:5" />
	<path d = "M246 246 L218 230 L218 261 L246 246 Z" stroke = "#000000" stroke-width = "5" fill = "none" />    <line x1="246" y1="246" x2="273" y2="246" style="stroke:#000000;stroke-width:5" />
    <line x1="273" y1="246" x2="280" y2="246" style="stroke:#000000;stroke-width:5" />
	<path d = "M280 252 L280 239 L287 239 L287 246 L287 252 L280 252 Z" stroke = "#000000" stroke-width = "5" fill = "none" />	<path d = "M287 252 L293 259 L293 252 L293 246 L293 239 L293 232 L287 239 " stroke = "#000000" stroke-width = "5" fill = "none" />  <path d="M325.239766747438 206.8891861929378           A54.64107642920561 54.64107642920561 0 0 1 325.2397667474364 284.1633375417853" fill = "none" stroke = "#000000" stroke-width = "5" />
  <path d="M305.9212289102258 226.2077240301493           A27.320538214602806 27.320538214602806 0 0 1 305.921228910225 264.84479970457306" fill = "none" stroke = "#000000" stroke-width = "5" />
  <path d="M315.5356053377487 216.5933476026268           A40.91731975216559 40.91731975216559 0 0 1 315.5356053377475 274.45917613209593" fill = "none" stroke = "#000000" stroke-width = "5" />
    <line x1="109" y1="246" x2="82" y2="246" style="stroke:#000000;stroke-width:5" />
    <line x1="82" y1="246" x2="54" y2="246" style="stroke:#000000;stroke-width:5" />
    <line x1="123" y1="259" x2="123" y2="314" style="stroke:#000000;stroke-width:5" />
    <line x1="123" y1="368" x2="123" y2="314" style="stroke:#000000;stroke-width:5" />
	<path d = "M232 396 L232 341 L177 341 L177 396 L232 396 Z" stroke = "#000000" stroke-width = "5" fill = "none" />    <line x1="205" y1="396" x2="205" y2="368" style="stroke:#000000;stroke-width:5" />
	<path d = "M191 341 L191 355 L205 368 L218 355 L218 341 " stroke = "#000000" stroke-width = "5" fill = "none" /><path    d = "M191,341 C191,327 177,327 177,314" fill = "none" stroke-width = "5" stroke = "#000000" />    <line x1="177" y1="314" x2="177" y2="287" style="stroke:#000000;stroke-width:5" />
    <line x1="177" y1="287" x2="177" y2="259" style="stroke:#000000;stroke-width:5" />
    <line x1="218" y1="341" x2="218" y2="314" style="stroke:#000000;stroke-width:5" />
  <path d="M218.3013455365047 313.827607403868           A13.6602691073014 13.6602691073014 0 0 1 231.96161464380643 300.1673382965669" fill = "none" stroke = "#000000" stroke-width = "5" />
    <line x1="232" y1="300" x2="259" y2="300" style="stroke:#000000;stroke-width:5" />
    <text x="266" y = "307" fill = "#000000" font-size = "13.6602691073014px" font-family = "Arial">SDR</text>
	<path d = "M259 314 L259 300 L259 287 L273 287 L287 287 L300 287 L307 287 L307 300 L307 314 L293 314 L280 314 L266 314 L259 314 Z" stroke = "#000000" stroke-width = "5" fill = "none" />	<path d = "M205 423 L189 450 L220 450 L205 423 Z" stroke = "#000000" stroke-width = "5" fill = "none" />    <line x1="205" y1="423" x2="205" y2="396" style="stroke:#000000;stroke-width:5" />
    <line x1="205" y1="450" x2="205" y2="478" style="stroke:#000000;stroke-width:5" />
    <line x1="123" y1="478" x2="123" y2="450" style="stroke:#000000;stroke-width:5" />
    <line x1="123" y1="450" x2="123" y2="423" style="stroke:#000000;stroke-width:5" />
    <line x1="123" y1="423" x2="123" y2="396" style="stroke:#000000;stroke-width:5" />
    <line x1="123" y1="396" x2="123" y2="368" style="stroke:#000000;stroke-width:5" />
</svg>