<svg width="500" height="600" viewbox = "0 0 500 600"  xmlns="http://www.w3.org/2000/svg">
<!--<json>{
  "glyph": "0336,0330,0330,0330,0330,0330,0330,0321,0227,0335,0335,0330,0201,0224,0201,0330,0221,0330,0336,0333,0337,0223,0336,0330,0220,0335,0335,0333,0333,0333,0333,0220,0330,0337,0222,0335,0335,0330,0330,0334,0336,0332,0337,0330,0201,0224,0201,0225,0334,0330,0332,0331,0332,0332,0332,0332,0332,0334,0201,0201,0335,0333,0333,0335,0335,0336,0332,0330,0337,0337,0201,0335,0335,0333,0331,0332,0342,0333,0333,0336,0332,0337,0336,0221,0330,0332,0336,0333,0337,0222,0201,0201,0331,0331,0333,0333,0331,0336,0332,0337,0201,0336,0333,0350,0334,0343,0335,0330,0335,0335,0337,0304,0201,0334,0226,0331,0331,0332,0332,0331,0332,0332,0335,0335,0332,0332,0330,0336,0331,0337,0330,0335,0335,0331,0224,0342,0330,0331,0331,0335,0335,0201,0335,0335,0330,0330,0330,0331,0331,0331,0332,0332,0332,0201,0201,0201,0201,0330,0330,0330,0330,0333,0333,0330,0333,0330,0333,",
  "x0": 250,
  "y0": 204.54545454545456,
  "unit": 54.64107642920563,
  "width": 500,
  "height": 600,
  "style": {
    "color0": "black",
    "fill0": "black",
    "line0": 1,
    "color1": "black",
    "fill1": "black",
    "line1": 5,
    "color2": "red",
    "fill2": "red",
    "line2": 6,
    "color3": "#FF7900",
    "fill3": "#FF7900",
    "line3": 1,
    "color4": "yellow",
    "fill4": "yellow",
    "line4": 1,
    "color5": "green",
    "fill5": "green",
    "line5": 1,
    "color6": "blue",
    "fill6": "blue",
    "line6": 6,
    "color7": "purple",
    "fill7": "purple",
    "line7": 1
  },
  "shapes": [
    "0220:0341,0350,0335,0342,0335,0335,0342,0335,0335,0342,0335,0335,0342,0335,0304,",
    "0221:0331,0333,0337,0200,0336,0332,0201,0350,0334,0310,0336,0330,0335,0336,0330,0335,0335,0335,0335,0362,0203,0334,0337,0203,0334,0334,0203,0334,0336,0203,0364,0304,0332,0313,0331,0331,0337,",
    "0222:0330,0331,0336,0366,0335,0335,0331,0331,0333,0367,0335,0335,0337,",
    "0223:0330,0331,0336,0366,0335,0335,0331,0331,0332,0367,0335,0335,0337,",
    "0224:0330,0334,0306,0334,0312,0336,0313,0337,0362,0203,0334,0334,0203,0334,0334,0203,0354,0334,0336,0312,0337,0304,0313,0335,",
    "0225:0336,0336,0342,0334,0333,0331,0337,0362,0203,0335,0336,0203,0335,0203,0203,0335,0203,0354,0335,0335,0330,0350,0335,0310,0337,0362,0203,0334,0334,0334,0336,0203,0203,0203,0203,0334,0334,0334,0337,0203,0364,0330,0334,0334,0334,0304,0336,0331,0313,0337,0337,",
    "0226:0336,0331,0337,0336,0336,0333,0330,0337,0123,0104,0122,0365,0336,0331,0332,0337,0362,0203,0203,0335,0203,0203,0203,0336,0203,0335,0337,0203,0203,0335,0203,0203,0203,0336,0203,0335,0354,0335,0337,0337,0334,0336,0330,0337,",
    "0227:0341,0336,0332,0333,0211,0211,0336,0332,0343,0335,0335,0332,0332,0343,0335,0335,0332,0337,0337,0210,0210,",
    "01220:0333,0200,0336,0330,0332,0336,0220,0337,0331,0333,0337,",
    "01221:0333,0200,0336,0330,0332,0336,0221,0337,0331,0333,0337,",
    "01222:0333,0200,0336,0332,0337,0336,0330,0222,0333,0336,0331,0331,0331,0331,0333,0337,0337,",
    "01223:0333,0200,0336,0330,0332,0223,0336,0331,0333,0331,0331,0331,0337,0337,",
    "01224:0333,0200,0336,0330,0332,0335,0336,0331,0337,0224,0334,0336,0333,0337,0331,0337,",
    "01225:0333,0200,0336,0330,0332,0336,0332,0335,0337,0225,0334,0336,0331,0331,0333,0333,0333,0337,0337,",
    "01226:0333,0200,0336,0330,0332,0336,0331,0332,0337,0336,0330,0226,0337,0331,0333,0336,0333,0337,0337,",
    "01227:0333,0200,0336,0330,0332,0336,0227,0337,0331,0333,0337,",
    "0240:0220,0336,0331,0333,0336,0321,0335,0342,0335,0335,0342,0335,0330,0330,0332,0332,0337,0337,",
    "01240:0333,0200,0336,0330,0332,0210,0240,0211,0333,0331,0337,",
    "0241:0220,0336,0321,0343,0332,0350,0335,0336,0342,0334,0334,0342,0335,0304,0337,0333,0337,",
    "01241:0333,0200,0336,0332,0330,0210,0241,0211,0333,0331,0337,",
    "0242:0220,0321,0336,0343,0333,0336,0350,0335,0342,0334,0334,0342,0335,0337,0304,0332,0337,",
    "01242:0333,0200,0336,0330,0332,0210,0242,0211,0333,0331,0337,",
    "0243:0220,0336,0331,0332,0336,0321,0343,0332,0350,0334,0336,0342,0335,0335,0342,0337,0334,0334,0335,0304,0332,0330,0330,0337,0337,0333,",
    "01243:0333,0200,0336,0330,0332,0210,0243,0211,0333,0331,0337,",
    "0244:0220,0336,0331,0333,0336,0321,0343,0333,0350,0336,0335,0342,0334,0334,0342,0335,0337,0304,0333,0330,0330,0337,0337,0332,",
    "01244:0333,0200,0336,0330,0332,0210,0244,0211,0333,0331,0337,",
    "0245:0210,0332,0332,0362,0335,0203,0203,0203,0203,0334,0203,0363,0332,0332,0331,0211,",
    "01245:0333,0200,0336,0330,0332,0336,0245,0337,0333,0331,0337,",
    "0246:0210,0332,0332,0335,0306,0336,0330,0335,0335,0335,0321,0362,0203,0335,0335,0203,0364,0331,0350,0335,0337,0366,0333,0333,0333,0333,0334,0334,0334,0334,0367,0335,0336,0342,0334,0334,0342,0330,0330,0330,0330,0335,0335,0335,0304,0337,0211,",
    "01246:0333,0200,0336,0330,0332,0336,0246,",
    "0247:0330,0332,0336,0332,0336,0221,0333,0333,0333,0222,0333,0333,0333,0223,0333,0333,0333,0225,0333,0331,0331,0331,0332,0332,0332,0332,0332,0332,0332,0332,0332,0332,0332,0332,0333,0333,0226,0331,0331,0331,0333,0333,0333,0333,0333,0333,0333,0333,0333,0333,0333,0333,0333,0330,0333,0330,0330,0333,0330,0331,0332,0332,0332,0332,0332,0332,0332,0332,0332,0332,0332,0332,0227,0333,0333,0333,0230,0333,0331,0331,0331,0331,0332,0332,0332,0330,0332,0332,0332,0332,0332,0332,0333,0333,0231,0333,0333,0333,0232,0331,0333,0330,0333,0333,0233,0333,0333,0333,0234,0330,0330,0332,0330,0332,0332,0337,0337,",
    "01247:0333,0200,0336,0330,0332,0220,0336,0247,0337,0331,0333,0337,"
  ]
}</json>--><circle cx="250" cy = "41" r = "27.320538214602816" stroke = "#000000" stroke-width = "5" fill = "none" />
  <path d="M232.11847559080735 40.62222525783767           A8.940762204596316 8.940762204596316 0 0 1 250 40.62222525783767" fill = "none" stroke = "#000000" stroke-width = "5" />
  <path d="M267.8815244091926 40.62222525783767           A8.940762204596316 8.940762204596316 0 0 1 249.99999999999997 40.62222525783767" fill = "none" stroke = "#000000" stroke-width = "5" />
    <line x1="250" y1="68" x2="250" y2="95" style="stroke:#000000;stroke-width:5" />
	<path d = "M250 123 L266 95 L234 95 L250 123 Z" stroke = "#000000" stroke-width = "5" fill = "none" />    <line x1="250" y1="123" x2="250" y2="150" style="stroke:#000000;stroke-width:5" />
	<path d = "M223 150 L223 205 L277 205 L277 150 L223 150 Z" stroke = "#000000" stroke-width = "5" fill = "none" />    <line x1="250" y1="150" x2="250" y2="177" style="stroke:#000000;stroke-width:5" />
	<path d = "M264 205 L264 191 L250 177 L236 191 L236 205 " stroke = "#000000" stroke-width = "5" fill = "none" /><path    d = "M236,205 C236,218 223,218 223,232" fill = "none" stroke-width = "5" stroke = "#000000" /><circle cx="223" cy = "246" r = "13.660269107301403" stroke = "#000000" stroke-width = "5" fill = "none" />
    <line x1="223" y1="246" x2="213" y2="255" style="stroke:#000000;stroke-width:5" />
    <line x1="223" y1="246" x2="213" y2="236" style="stroke:#000000;stroke-width:5" />
    <line x1="223" y1="246" x2="232" y2="236" style="stroke:#000000;stroke-width:5" />
    <line x1="223" y1="246" x2="232" y2="255" style="stroke:#000000;stroke-width:5" />
<circle cx="277" cy = "246" r = "13.660269107301403" stroke = "#000000" stroke-width = "5" fill = "none" />
    <line x1="277" y1="246" x2="287" y2="236" style="stroke:#000000;stroke-width:5" />
    <line x1="277" y1="246" x2="287" y2="255" style="stroke:#000000;stroke-width:5" />
    <line x1="277" y1="246" x2="268" y2="255" style="stroke:#000000;stroke-width:5" />
    <line x1="277" y1="246" x2="268" y2="236" style="stroke:#000000;stroke-width:5" />
<path    d = "M277,232 C277,218 264,218 264,205" fill = "none" stroke-width = "5" stroke = "#000000" />    <line x1="291" y1="246" x2="318" y2="246" style="stroke:#000000;stroke-width:5" />
	<path d = "M346 246 L318 230 L318 261 L346 246 Z" stroke = "#000000" stroke-width = "5" fill = "none" />    <line x1="346" y1="246" x2="373" y2="246" style="stroke:#000000;stroke-width:5" />
    <line x1="373" y1="246" x2="380" y2="246" style="stroke:#000000;stroke-width:5" />
	<path d = "M380 252 L380 239 L387 239 L387 246 L387 252 L380 252 Z" stroke = "#000000" stroke-width = "5" fill = "none" />	<path d = "M387 252 L393 259 L393 252 L393 246 L393 239 L393 232 L387 239 " stroke = "#000000" stroke-width = "5" fill = "none" />    <line x1="209" y1="246" x2="182" y2="246" style="stroke:#000000;stroke-width:5" />
    <line x1="182" y1="246" x2="154" y2="246" style="stroke:#000000;stroke-width:5" />
    <line x1="223" y1="259" x2="223" y2="314" style="stroke:#000000;stroke-width:5" />
    <line x1="223" y1="368" x2="223" y2="314" style="stroke:#000000;stroke-width:5" />
	<path d = "M332 396 L332 341 L277 341 L277 396 L332 396 Z" stroke = "#000000" stroke-width = "5" fill = "none" />    <line x1="305" y1="396" x2="305" y2="368" style="stroke:#000000;stroke-width:5" />
	<path d = "M291 341 L291 355 L305 368 L318 355 L318 341 " stroke = "#000000" stroke-width = "5" fill = "none" /><path    d = "M291,341 C291,327 277,327 277,314" fill = "none" stroke-width = "5" stroke = "#000000" />    <line x1="277" y1="314" x2="277" y2="287" style="stroke:#000000;stroke-width:5" />
    <line x1="277" y1="287" x2="277" y2="259" style="stroke:#000000;stroke-width:5" />
    <line x1="318" y1="341" x2="318" y2="314" style="stroke:#000000;stroke-width:5" />
  <path d="M318.3013455365047 313.82760740386806           A13.660269107301403 13.660269107301403 0 0 1 331.96161464380646 300.167338296567" fill = "none" stroke = "#000000" stroke-width = "5" />
    <line x1="332" y1="300" x2="359" y2="300" style="stroke:#000000;stroke-width:5" />
    <text x="366" y = "307" fill = "#000000" font-size = "13.660269107301403px" font-family = "Arial">SDR</text>
	<path d = "M359 314 L359 300 L359 287 L373 287 L387 287 L400 287 L407 287 L407 300 L407 314 L393 314 L380 314 L366 314 L359 314 Z" stroke = "#000000" stroke-width = "5" fill = "none" />	<path d = "M305 423 L289 450 L320 450 L305 423 Z" stroke = "#000000" stroke-width = "5" fill = "none" />    <line x1="305" y1="423" x2="305" y2="396" style="stroke:#000000;stroke-width:5" />
    <line x1="305" y1="450" x2="305" y2="478" style="stroke:#000000;stroke-width:5" />
    <line x1="223" y1="478" x2="223" y2="450" style="stroke:#000000;stroke-width:5" />
    <line x1="223" y1="450" x2="223" y2="423" style="stroke:#000000;stroke-width:5" />
    <line x1="223" y1="423" x2="223" y2="396" style="stroke:#000000;stroke-width:5" />
    <line x1="223" y1="396" x2="223" y2="368" style="stroke:#000000;stroke-width:5" />
</svg>