<svg width="500" height="500" viewbox = "0 0 500 500"  xmlns="http://www.w3.org/2000/svg">
<!--<json>{
  "glyph": "0336,0333,0337,0332,0332,0330,0321,0330,0330,0336,0227,0335,0335,0330,0201,0337,0336,0330,0221,0330,0336,0332,0337,0337,0222,0335,0335,0332,0332,0336,0333,0337,0223,0334,0331,0333,0335,0335,0334,0331,0331,0336,0331,0331,0330,0220,0332,0332,0332,0220,0334,0330,0337,0337,0337,0337,0342,0336,0336,0336,0335,0335,0335,0336,0330,0332,0337,0337,0337,0337,0342,0336,0336,0336,0332,0332,0336,0333,0337,0335,0335,0331,0331,0333,0336,0332,0336,0333,0337,0330,0332,0336,0333,0337,0337,0330,0336,0332,0337,0336,0342,0337,0333,0331,0336,0333,0331,0337,0330,0330,0332,0330,0336,0331,0335,0337,0201,0224,0225,0334,0331,0331,0331,0331,0331,0332,0342,0330,0336,0330,0221,0330,0332,0336,0333,0337,0337,0366,0335,0335,0331,0333,0331,0336,0336,0333,0337,0337,0367,0335,0335,0331,0333,0331,0333,0336,0332,0336,0333,0337,0201,0333,0350,0334,0343,0335,0330,0335,0335,0304,0337,0334,0226,0331,0331,0331,0330,0336,0333,0337,0331,0336,0330,0332,0333,0337,0230,0336,0333,0122,0106,040,0111,0116,0365,0330,0332,0330,0332,0332,0332,0332,0332,0332,0332,0332,0332,0332,0332,0335,0335,0332,0337,0335,0335,0336,0330,0332,0330,0122,0106,040,0117,0125,0334,0333,0331,0331,0332,0332,0332,0335,0331,0333,0331,0331,0330,0336,0332,0337,0332,0336,0332,0337,0336,0332,0337,0336,0336,0333,0337,0337,0124,0365,0333,0330,0333,0330,0330,0335,0335,0332,0330,0331,0331,0331,0231,0330,0336,0330,0337,0337,0230,0300,0330,0332,0332,0332,0331,0332,0335,0336,0331,0321,0231,0337,0230,0334,0331,0336,0331,0101,0125,0104,0111,0117,0365,0331,0336,0331,0337,0111,0116,0365,",
  "x0": 250,
  "y0": 204.54545454545456,
  "unit": 54.64107642920563,
  "width": 500,
  "height": 500,
  "style": {
    "color0": "black",
    "fill0": "black",
    "line0": 1,
    "color1": "black",
    "fill1": "black",
    "line1": 5,
    "color2": "red",
    "fill2": "red",
    "line2": 6,
    "color3": "#FF7900",
    "fill3": "#FF7900",
    "line3": 1,
    "color4": "yellow",
    "fill4": "yellow",
    "line4": 1,
    "color5": "green",
    "fill5": "green",
    "line5": 1,
    "color6": "blue",
    "fill6": "blue",
    "line6": 6,
    "color7": "purple",
    "fill7": "purple",
    "line7": 1
  },
  "shapes": [
    "0220:0341,0350,0335,0342,0335,0335,0342,0335,0335,0342,0335,0335,0342,0335,0304,",
    "0221:0331,0333,0337,0200,0336,0332,0201,0350,0334,0310,0336,0330,0335,0336,0330,0335,0335,0335,0335,0362,0203,0334,0337,0203,0334,0334,0203,0334,0336,0203,0364,0304,0332,0313,0331,0331,0337,",
    "0222:0330,0331,0336,0366,0335,0335,0331,0331,0333,0367,0335,0335,0337,",
    "0223:0330,0331,0336,0366,0335,0335,0331,0331,0332,0367,0335,0335,0337,",
    "0224:0330,0334,0306,0334,0312,0336,0313,0337,0362,0203,0334,0334,0203,0334,0334,0203,0354,0334,0336,0312,0337,0304,0313,0335,",
    "0225:0336,0336,0342,0334,0333,0331,0337,0362,0203,0335,0336,0203,0335,0203,0203,0335,0203,0354,0335,0335,0330,0350,0335,0310,0337,0362,0203,0334,0334,0334,0336,0203,0203,0203,0203,0334,0334,0334,0337,0203,0364,0330,0334,0334,0334,0304,0336,0331,0313,0337,0337,0336,0330,0337,0337,0350,0343,0336,0343,0211,0211,0211,0343,0210,0210,0210,0304,0331,0337,0336,0336,0330,0337,",
    "0226:0336,0331,0337,0336,0336,0333,0330,0337,0123,0104,0122,0365,0336,0331,0332,0337,0362,0203,0203,0335,0203,0203,0203,0336,0203,0335,0337,0203,0203,0335,0203,0203,0203,0336,0203,0335,0354,0335,0337,0337,0334,0336,0330,0337,",
    "0227:0341,0336,0332,0333,0211,0211,0336,0332,0343,0335,0335,0332,0332,0343,0335,0335,0332,0337,0337,0210,0210,",
    "0230:0336,0342,0330,0334,0336,0331,0337,0306,0362,0203,0335,0335,0203,0335,0335,0203,0363,0335,0335,0336,0330,0304,0335,0337,0331,0337,",
    "01220:0333,0200,0336,0330,0332,0336,0220,0337,0331,0333,0337,",
    "01221:0333,0200,0336,0330,0332,0336,0221,0337,0331,0333,0337,",
    "01222:0333,0200,0336,0332,0337,0336,0330,0222,0333,0336,0331,0331,0331,0331,0333,0337,0337,",
    "01223:0333,0200,0336,0330,0332,0223,0336,0331,0333,0331,0331,0331,0337,0337,",
    "01224:0333,0200,0336,0330,0332,0335,0336,0331,0337,0224,0334,0336,0333,0337,0331,0337,",
    "01225:0333,0200,0336,0330,0332,0336,0332,0335,0337,0225,0334,0336,0331,0331,0333,0333,0333,0337,0337,",
    "01226:0333,0200,0336,0330,0332,0336,0331,0332,0337,0336,0330,0226,0337,0331,0333,0336,0333,0337,0337,",
    "01227:0333,0200,0336,0330,0332,0336,0227,0337,0331,0333,0337,",
    "01230:0333,0200,0336,0330,0332,0336,0331,0337,0230,0336,0331,0337,0333,0337,",
    "0240:0220,0336,0331,0333,0336,0321,0335,0342,0335,0335,0342,0335,0330,0330,0332,0332,0337,0337,",
    "01240:0333,0200,0336,0330,0332,0210,0240,0211,0333,0331,0337,",
    "0241:0220,0336,0321,0343,0332,0350,0335,0336,0342,0334,0334,0342,0335,0304,0337,0333,0337,",
    "01241:0333,0200,0336,0332,0330,0210,0241,0211,0333,0331,0337,",
    "0242:0220,0321,0336,0343,0333,0336,0350,0335,0342,0334,0334,0342,0335,0337,0304,0332,0337,",
    "01242:0333,0200,0336,0330,0332,0210,0242,0211,0333,0331,0337,",
    "0243:0220,0336,0331,0332,0336,0321,0343,0332,0350,0334,0336,0342,0335,0335,0342,0337,0334,0334,0335,0304,0332,0330,0330,0337,0337,0333,",
    "01243:0333,0200,0336,0330,0332,0210,0243,0211,0333,0331,0337,",
    "0244:0220,0336,0331,0333,0336,0321,0343,0333,0350,0336,0335,0342,0334,0334,0342,0335,0337,0304,0333,0330,0330,0337,0337,0332,",
    "01244:0333,0200,0336,0330,0332,0210,0244,0211,0333,0331,0337,",
    "0245:0210,0332,0332,0362,0335,0203,0203,0203,0203,0334,0203,0363,0332,0332,0331,0211,",
    "01245:0333,0200,0336,0330,0332,0336,0245,0337,0333,0331,0337,",
    "0246:0210,0332,0332,0335,0306,0336,0330,0335,0335,0335,0321,0362,0203,0335,0335,0203,0364,0331,0350,0335,0337,0366,0333,0333,0333,0333,0334,0334,0334,0334,0367,0335,0336,0342,0334,0334,0342,0330,0330,0330,0330,0335,0335,0335,0304,0337,0211,",
    "01246:0333,0200,0336,0330,0332,0336,0246,",
    "0247:0330,0332,0336,0332,0336,0221,0333,0333,0333,0222,0333,0333,0333,0223,0333,0333,0333,0225,0333,0331,0331,0331,0332,0332,0332,0332,0332,0332,0332,0332,0332,0332,0332,0332,0333,0333,0226,0331,0331,0331,0333,0333,0333,0333,0333,0333,0333,0333,0333,0333,0333,0333,0333,0330,0333,0330,0330,0333,0330,0331,0332,0332,0332,0332,0332,0332,0332,0332,0332,0332,0332,0332,0227,0333,0333,0333,0230,0333,0331,0331,0331,0331,0332,0332,0332,0330,0332,0332,0332,0332,0332,0332,0333,0333,0231,0333,0333,0333,0232,0331,0333,0330,0333,0333,0233,0333,0333,0333,0234,0330,0330,0332,0330,0332,0332,0337,0337,",
    "01247:0333,0200,0336,0330,0332,0220,0336,0247,0337,0331,0333,0337,"
  ]
}</json>--><circle cx="168" cy = "41" r = "27.320538214602816" stroke = "#000000" stroke-width = "5" fill = "none" />
  <path d="M150.1568609469989 40.62222525783765           A8.940762204596316 8.940762204596316 0 0 1 168.03838535619155 40.62222525783765" fill = "none" stroke = "#000000" stroke-width = "5" />
  <path d="M185.9199097653842 40.62222525783765           A8.940762204596316 8.940762204596316 0 0 1 168.03838535619155 40.62222525783765" fill = "none" stroke = "#000000" stroke-width = "5" />
    <line x1="168" y1="68" x2="168" y2="95" style="stroke:#000000;stroke-width:5" />
	<path d = "M141 95 L141 150 L195 150 L195 95 L141 95 Z" stroke = "#000000" stroke-width = "5" fill = "none" />    <line x1="168" y1="95" x2="168" y2="123" style="stroke:#000000;stroke-width:5" />
	<path d = "M182 150 L182 136 L168 123 L154 136 L154 150 " stroke = "#000000" stroke-width = "5" fill = "none" /><path    d = "M182,150 C182,177 209,177 209,205" fill = "none" stroke-width = "5" stroke = "#000000" /><path    d = "M127,205 C127,177 154,177 154,150" fill = "none" stroke-width = "5" stroke = "#000000" /><circle cx="209" cy = "232" r = "27.320538214602806" stroke = "#000000" stroke-width = "5" fill = "none" />
    <line x1="209" y1="232" x2="228" y2="213" style="stroke:#000000;stroke-width:5" />
    <line x1="209" y1="232" x2="228" y2="251" style="stroke:#000000;stroke-width:5" />
    <line x1="209" y1="232" x2="190" y2="251" style="stroke:#000000;stroke-width:5" />
    <line x1="209" y1="232" x2="190" y2="213" style="stroke:#000000;stroke-width:5" />
<circle cx="127" cy = "232" r = "27.320538214602806" stroke = "#000000" stroke-width = "5" fill = "none" />
    <line x1="127" y1="232" x2="146" y2="213" style="stroke:#000000;stroke-width:5" />
    <line x1="127" y1="232" x2="146" y2="251" style="stroke:#000000;stroke-width:5" />
    <line x1="127" y1="232" x2="108" y2="251" style="stroke:#000000;stroke-width:5" />
    <line x1="127" y1="232" x2="108" y2="213" style="stroke:#000000;stroke-width:5" />
    <line x1="100" y1="232" x2="-337" y2="232" style="stroke:#000000;stroke-width:5" />
    <line x1="127" y1="259" x2="127" y2="696" style="stroke:#000000;stroke-width:5" />
    <line x1="209" y1="287" x2="209" y2="259" style="stroke:#000000;stroke-width:5" />
    <line x1="236" y1="232" x2="291" y2="232" style="stroke:#000000;stroke-width:5" />
	<path d = "M346 232 L291 200 L291 263 L346 232 Z" stroke = "#000000" stroke-width = "5" fill = "none" />    <line x1="346" y1="232" x2="359" y2="232" style="stroke:#000000;stroke-width:5" />
	<path d = "M359 246 L359 218 L373 218 L373 232 L373 246 L359 246 Z" stroke = "#000000" stroke-width = "5" fill = "none" />	<path d = "M373 246 L387 259 L387 246 L387 232 L387 218 L387 205 L373 218 " stroke = "#000000" stroke-width = "5" fill = "none" />  <path d="M450.2165733145642 154.5918414112187           A109.28215285841122 109.28215285841122 0 0 1 450.2165733145562 309.14014410891366" fill = "none" stroke = "#000000" stroke-width = "5" />
  <path d="M411.5794976401385 193.2289170856404           A54.64107642920561 54.64107642920561 0 0 1 411.5794976401345 270.5030684344879" fill = "none" stroke = "#000000" stroke-width = "5" />
  <path d="M430.8082504951849 174.000164230596           A81.83463950433118 81.83463950433118 0 0 1 430.80825049517887 289.7318212895343" fill = "none" stroke = "#000000" stroke-width = "5" />
    <line x1="291" y1="505" x2="291" y2="450" style="stroke:#000000;stroke-width:5" />
	<path d = "M318 450 L318 396 L264 396 L264 450 L318 450 Z" stroke = "#000000" stroke-width = "5" fill = "none" />    <line x1="291" y1="450" x2="291" y2="423" style="stroke:#000000;stroke-width:5" />
	<path d = "M277 396 L277 409 L291 423 L305 409 L305 396 " stroke = "#000000" stroke-width = "5" fill = "none" /><path    d = "M277,396 C277,341 209,341 209,287" fill = "none" stroke-width = "5" stroke = "#000000" />    <line x1="305" y1="396" x2="305" y2="368" style="stroke:#000000;stroke-width:5" />
  <path d="M304.6410764291978 368.4686838330735           A27.3205382146028 27.3205382146028 0 0 1 331.9616146438021 341.14814561847214" fill = "none" stroke = "#000000" stroke-width = "5" />
    <text x="346" y = "355" fill = "#000000" font-size = "27.3205382146028px" font-family = "Arial">SDR</text>
	<path d = "M332 368 L332 341 L332 314 L359 314 L387 314 L414 314 L428 314 L428 341 L428 368 L400 368 L373 368 L346 368 L332 368 Z" stroke = "#000000" stroke-width = "5" fill = "none" />    <line x1="359" y1="478" x2="359" y2="450" style="stroke:#000000;stroke-width:5" />
	<path d = "M373 450 L346 450 L359 427 L373 450 Z" stroke = "#000000" stroke-width = "5" fill = "#000000" />    <text x="387" y = "478" fill = "#000000" font-size = "27.3205382146028px" font-family = "Arial">RF IN</text>
    <text x="79" y = "478" fill = "#000000" font-size = "27.3205382146028px" font-family = "Arial">RF OUT</text>
    <line x1="161" y1="382" x2="161" y2="409" style="stroke:#000000;stroke-width:5" />
	<path d = "M148 409 L175 409 L161 433 L148 409 Z" stroke = "#000000" stroke-width = "5" fill = "#000000" />    <line x1="4" y1="205" x2="31" y2="205" style="stroke:#000000;stroke-width:5" />
	<path d = "M31 218 L31 191 L55 205 L31 218 Z" stroke = "#000000" stroke-width = "5" fill = "#000000" />    <text x="4" y = "287" fill = "#000000" font-size = "27.320538214602816px" font-family = "Arial">AUDIO</text>
    <text x="4" y = "327" fill = "#000000" font-size = "27.320538214602816px" font-family = "Arial">IN</text>
</svg>